<?xml version="1.0" standalone="no"?>
<!DOCTYPE svg PUBLIC "-//W3C//DTD SVG 1.1//EN" "http://www.w3.org/Graphics/SVG/1.1/DTD/svg11.dtd" >
<svg xmlns="http://www.w3.org/2000/svg" xmlns:xlink="http://www.w3.org/1999/xlink" version="1.1">
<metadata>
Created by FontForge 20170731 at Wed Mar 23 18:58:16 2011
 By Aleksey,,,
(c) 1989, 1990, 1991, 1992, 1993, 1996, 1997, 1998, 2001 Adobe Systems Incorporated. All rights reserved.
</metadata>
<defs>
<font id="CourierStd" horiz-adv-x="600" >
  <font-face 
    font-family="Courier Std"
    font-weight="500"
    font-stretch="normal"
    units-per-em="1000"
    panose-1="2 7 4 9 2 2 5 2 4 4"
    ascent="627"
    descent="-373"
    x-height="434"
    cap-height="572"
    bbox="-56 -250 678 857"
    underline-thickness="52"
    underline-position="-328"
    unicode-range="U+0020-FB02"
  />
<missing-glyph 
d="M50 0v700h500v-700h-500zM300 395l170 255h-340zM330 350l170 -255v510zM130 50h340l-170 255zM100 605v-510l170 255z" />
    <glyph glyph-name=".notdef" 
d="M50 0v700h500v-700h-500zM300 395l170 255h-340zM330 350l170 -255v510zM130 50h340l-170 255zM100 605v-510l170 255z" />
    <glyph glyph-name=".null" horiz-adv-x="0" 
 />
    <glyph glyph-name="nonmarkingreturn" 
 />
    <glyph glyph-name="space" unicode=" " 
 />
    <glyph glyph-name="exclam" unicode="!" 
d="M345 572l-16 -391h-44l-18 391h78zM375 49q0 -25 -19.5 -43t-48.5 -18t-49 18.5t-20 41.5t20.5 41.5t50.5 18.5q25 0 45.5 -18t20.5 -41z" />
    <glyph glyph-name="quotedbl" unicode="&#x22;" 
d="M437 572l-22 -292h-49l-23 292h94zM263 572l-23 -292h-50l-23 292h96z" />
    <glyph glyph-name="numbersign" unicode="#" 
d="M523 140h-112l-13 -217h-51l13 217h-143l-14 -217h-51l13 217h-97v53h101l10 163h-111v54h114l14 229h52l-14 -229h144l13 229h51l-14 -229h95v-54h-98l-10 -163h108v-53zM375 356h-145l-10 -163h144z" />
    <glyph glyph-name="dollar" unicode="$" 
d="M501 167q0 -60 -45.5 -102.5t-126.5 -49.5v-152h-55v151q-60 3 -116 34v-41h-54v159h54v-56q49 -42 134 -42q28 0 53 4t49.5 14t39 29.5t14.5 47.5q0 47 -49 70q-33 16 -100 31.5t-95 26.5q-92 35 -92 115v1q0 70 51.5 106t110.5 37v105h55v-104q41 -5 98 -34v46h54v-150
h-54v47q-66 37 -132 37q-49 0 -89.5 -22.5t-40.5 -60.5q0 -65 104 -92l101 -26q72 -19 101.5 -50t29.5 -79z" />
    <glyph glyph-name="percent" unicode="%" 
d="M355 498q0 -52 -35.5 -88.5t-88.5 -36.5q-55 0 -90 36.5t-35 87.5t34.5 88t88.5 37q61 0 93.5 -36t32.5 -88zM300 497q0 29 -18.5 49.5t-49.5 20.5q-32 0 -51.5 -20t-19.5 -51q0 -30 20 -48.5t51 -18.5t49.5 20.5t18.5 47.5zM471 113q0 -52 -35 -88.5t-88 -36.5
q-55 0 -90.5 36.5t-35.5 87.5t35 88t89 37q61 0 93 -35.5t32 -88.5zM417 112q0 29 -18.5 49.5t-49.5 20.5q-32 0 -51.5 -20t-19.5 -51q0 -30 20 -48.5t51 -18.5t49.5 20.5t18.5 47.5zM523 360l-416 -155l-14 51l415 157z" />
    <glyph glyph-name="ampersand" unicode="&#x26;" 
d="M567 0h-149l-35 50q-57 -62 -146 -62q-73 0 -108.5 46t-35.5 99q0 113 113 174l-11 17q-41 62 -41 107t36.5 76.5t95.5 31.5q70 0 136 -46l-20 -47q-53 39 -107 39q-40 0 -63 -19.5t-23 -42.5q0 -40 36 -85l142 -202q42 61 42 134h121v-54h-79q-16 -73 -53 -124l25 -37
h124v-55zM354 94l-121 173q-85 -38 -85 -122q0 -48 29 -75t69 -27q25 0 48 9.5t32.5 17t27.5 24.5z" />
    <glyph glyph-name="quotesingle" unicode="'" 
d="M347 572l-22 -292h-51l-22 292h95z" />
    <glyph glyph-name="parenleft" unicode="(" 
d="M462 648l-28 -52q-93 -174 -93 -327t119 -366h-53q-50 78 -85.5 180t-35.5 203q0 75 34.5 177.5t87.5 184.5h54z" />
    <glyph glyph-name="parenright" unicode=")" 
d="M316 286q0 -101 -35.5 -203t-85.5 -180h-53q119 213 119 366t-93 327l-28 52h54q53 -82 87.5 -184.5t34.5 -177.5z" />
    <glyph glyph-name="asterisk" unicode="*" 
d="M487 399l-140 -37l86 -124l-61 -34l-75 118l-78 -118l-61 34l87 124l-141 37l16 71l146 -52l-6 154h72l-6 -154l144 52z" />
    <glyph glyph-name="plus" unicode="+" 
d="M514 190h-186v-188h-54v188h-189v54h189v188h54v-188h186v-54z" />
    <glyph glyph-name="comma" unicode="," 
d="M350 121l-104 -250h-65l74 250h95z" />
    <glyph glyph-name="hyphen" unicode="-" 
d="M459 221h-320v55h320v-55z" />
    <glyph glyph-name="period" unicode="." 
d="M372 46q0 -24 -21 -41t-46 -17q-31 0 -51 18t-20 41q0 25 20.5 42.5t49.5 17.5t48.5 -18.5t19.5 -42.5z" />
    <glyph glyph-name="slash" unicode="/" 
d="M504 680l-365 -823l-47 21l365 823z" />
    <glyph glyph-name="zero" unicode="0" 
d="M496 298q0 -310 -192 -310q-60 0 -101.5 32t-59.5 84.5t-24.5 95.5t-6.5 89q0 35 7 89q9 71 41 126t89 72q29 8 58 8q94 0 146 -87q43 -72 43 -199zM442 294q-2 112 -34 173q-33 62 -104 62q-39 0 -67.5 -21t-43 -57t-20.5 -76t-6 -87q0 -73 19 -146q3 -13 9.5 -26.5
t19.5 -31.5t37 -29.5t55 -11.5q135 0 135 242v9z" />
    <glyph glyph-name="one" unicode="1" 
d="M507 0h-402v55h176v459l-176 -36v55l231 51v-529h171v-55z" />
    <glyph glyph-name="two" unicode="2" 
d="M478 0h-403v59l224 176q28 21 68.5 61.5t48.5 62.5q9 25 9 43q0 58 -42 93t-102 35q-49 0 -89 -25t-40 -71h-54v71q76 79 187 79q50 0 98.5 -23.5t73.5 -69.5q21 -39 21 -83q0 -56 -33.5 -100t-119.5 -114l-171 -139h270v71h54v-126z" />
    <glyph glyph-name="three" unicode="3" 
d="M472 154q0 -79 -61 -122.5t-140 -43.5q-78 0 -154 30l-36 14l14 47q96 -36 166 -36t114 31.5t44 81.5q0 37 -25.5 61.5t-57.5 32.5q-36 9 -86 9h-16v55h3q74 0 110.5 34t36.5 78q0 42 -32.5 73t-92.5 31q-67 0 -147 -47l-18 44q89 57 179 57q48 0 87 -22.5t58 -55.5
q20 -36 20 -78q0 -36 -13 -64t-26 -40.5t-39 -30.5q16 -4 32 -11.5t36 -22.5t32 -42.5t12 -62.5z" />
    <glyph glyph-name="four" unicode="4" 
d="M484 0h-259v55h110v107h-274v49l249 361h80v-355h94v-55h-94v-107h94v-55zM335 524l-213 -307h213v307z" />
    <glyph glyph-name="five" unicode="5" 
d="M500 171q0 -28 -10.5 -57t-33 -59t-67.5 -48.5t-105 -18.5q-75 0 -194 39l11 55q102 -39 178 -39q78 0 122.5 35.5t44.5 90.5q0 51 -41 89t-112 38q-68 0 -131 -38l-39 9v305h346v-55h-291v-196q62 30 130 30q90 0 141 -52.5t51 -127.5z" />
    <glyph glyph-name="six" unicode="6" 
d="M490 527q-7 1 -28 1l-42 -1q-1 0 -2.5 1t-2.5 1q-70 0 -135 -35q-60 -33 -94 -97.5t-35 -146.5q65 85 162 85q80 0 126.5 -50.5t46.5 -123.5q0 -75 -50.5 -124.5t-128.5 -49.5q-35 0 -70 13t-67.5 41t-52.5 79.5t-20 120.5q0 197 142 293q75 50 180 50h71v-57zM433 160
q0 37 -18 66q-35 54 -111 54q-47 0 -88.5 -26t-62.5 -65q4 -30 19 -65q16 -37 51 -59.5t77 -22.5q68 0 100.5 35.5t32.5 82.5z" />
    <glyph glyph-name="seven" unicode="7" 
d="M503 514l-194 -514h-61l196 517h-289v-82h-54v137h402v-58z" />
    <glyph glyph-name="eight" unicode="8" 
d="M492 156q0 -72 -52.5 -120.5t-141.5 -48.5q-90 0 -142 48.5t-52 116.5q0 92 91 142q-76 40 -76 129q0 76 50.5 119t130.5 43q63 0 104 -27t55.5 -61t14.5 -72q0 -55 -22 -84t-57 -47q97 -38 97 -138zM420 424q0 45 -34 75t-90 30q-12 0 -24 -1.5t-31 -8t-33 -17
t-24 -31.5t-10 -49q0 -32 13.5 -54.5t35.5 -32t39 -13t34 -3.5q54 0 89 29t35 76zM438 152q0 51 -41 81t-101 30q-19 0 -39.5 -4.5t-44.5 -16t-39 -36t-15 -58.5q0 -32 15 -54t39.5 -32.5t46 -14.5t42.5 -4q53 0 95 26.5t42 82.5z" />
    <glyph glyph-name="nine" unicode="9" 
d="M506 326q0 -135 -59 -218.5t-153 -106.5q-61 -14 -116 -14h-67v57h52q3 0 10 -1t10 -1q51 0 95 12q76 21 121.5 79t52.5 172q-24 -38 -67 -59t-89 -21q-86 0 -132.5 53.5t-46.5 127.5q0 73 52.5 125.5t133.5 52.5q78 0 129 -46q74 -66 74 -212zM450 365q-2 65 -38 115
q-36 49 -108 49q-59 0 -96 -34t-37 -88q0 -55 35.5 -90.5t98.5 -35.5q50 0 91.5 26.5t53.5 57.5z" />
    <glyph glyph-name="colon" unicode=":" 
d="M376 310q0 -26 -20 -43.5t-48 -17.5q-29 0 -50 17.5t-21 41.5q0 25 20.5 42.5t48.5 17.5q35 0 52.5 -20t17.5 -38zM376 47q0 -26 -20 -43.5t-48 -17.5q-29 0 -50 17.5t-21 41.5q0 25 20.5 42.5t48.5 17.5q35 0 52.5 -20t17.5 -38z" />
    <glyph glyph-name="semicolon" unicode=";" 
d="M389 310q0 -26 -20 -43.5t-48 -17.5q-29 0 -50 17.5t-21 41.5q0 25 20.5 42.5t48.5 17.5q35 0 52.5 -20t17.5 -38zM359 121l-104 -250h-64l72 250h96z" />
    <glyph glyph-name="less" unicode="&#x3c;" 
d="M491 -1l-398 163v78l398 164v-56l-352 -147l352 -147v-55z" />
    <glyph glyph-name="equal" unicode="=" 
d="M514 266h-429v55h429v-55zM514 110h-429v54h429v-54z" />
    <glyph glyph-name="greater" unicode="&#x3e;" 
d="M522 163l-398 -163v55l352 147l-352 147v55l398 -163v-78z" />
    <glyph glyph-name="question" unicode="?" 
d="M481 416q0 -42 -17 -74.5t-48 -52.5t-57 -30t-61 -20v-59h-55v105q26 5 40 8t40 10.5t41 16.5t31.5 22.5t24.5 32.5t8 43q0 39 -32.5 75t-106.5 36q-57 0 -114 -27v-62h-54v110q89 34 165 34q58 0 105.5 -23.5t71.5 -69.5q18 -34 18 -75zM340 46q0 -24 -21 -41t-46 -17
q-31 0 -51 18t-20 41q0 25 20.5 42.5t49.5 17.5t48.5 -18.5t19.5 -42.5z" />
    <glyph glyph-name="at" unicode="@" 
d="M565 297q0 -81 -38 -135.5t-97 -54.5q-33 0 -55.5 19.5t-26.5 43.5q-15 -27 -41 -45t-55 -18q-30 0 -49 22q-23 25 -23 76q0 72 44 132.5t93 60.5q45 0 62 -56l14 50h37l-35 -126q-15 -52 -15 -68q0 -25 16 -40t37 -15q38 0 66.5 45.5t28.5 111.5q0 101 -63 153.5
t-156 52.5q-62 0 -109.5 -22.5t-73.5 -59.5t-38.5 -78.5t-12.5 -85.5q0 -80 34 -137q59 -100 182 -100q106 0 223 68l15 -36q-115 -69 -235 -69q-55 0 -99 17t-72.5 44.5t-48 63.5t-27.5 73.5t-8 75.5q0 124 72.5 203.5t202.5 79.5q125 0 194 -82q57 -69 57 -164zM356 303
q0 11 -3 23t-13.5 23.5t-27.5 11.5q-35 0 -65.5 -56.5t-30.5 -101.5q0 -22 9 -41t32 -19q41 0 70 53t29 107z" />
    <glyph glyph-name="A" unicode="A" 
d="M603 0h-209v55h98l-45 114h-289l-43 -114h91v-55h-212v55h62l183 462h-143v55h245l208 -517h54v-55zM425 224l-126 309l-119 -309h245z" />
    <glyph glyph-name="B" unicode="B" 
d="M547 150q0 -55 -35 -96q-45 -54 -158 -54h-312v55h78v462h-78v55h256q73 0 121 -15t72 -65q18 -38 18 -78q0 -49 -24 -85q-16 -24 -61 -46q53 -10 88 -44t35 -89zM454 418q0 37 -25 63.5t-61 30.5q-44 5 -106 5h-87v-207h121q88 0 126 32q32 27 32 76zM492 149
q0 49 -39 73q-52 32 -132 32h-146v-199h153q77 0 116 18q48 23 48 76z" />
    <glyph glyph-name="C" unicode="C" 
d="M557 61q-100 -74 -217 -74q-131 0 -202.5 89t-71.5 221q0 118 73 202.5t188 84.5q79 0 144 -42l30 -19v61h54v-213h-54v81q-73 78 -167 78q-32 0 -65.5 -12t-68 -37t-56.5 -74.5t-22 -114.5q0 -116 63 -183t160 -67q98 0 188 66z" />
    <glyph glyph-name="D" unicode="D" 
d="M558 299q0 -131 -50 -203t-134 -87q-51 -9 -126 -9h-214v55h78v462h-78v55h242q64 0 99 -7q84 -18 133.5 -83.5t49.5 -182.5zM503 291q0 62 -17 110t-43 70q-35 30 -70 38t-108 8h-99v-462h110q141 0 187 77q40 67 40 159z" />
    <glyph glyph-name="E" unicode="E" 
d="M540 0h-483v55h79v462h-81v55h479v-191h-55v136h-289v-204h160v74h55v-202h-55v73h-160v-203h295v136h55v-191z" />
    <glyph glyph-name="F" unicode="F" 
d="M554 382h-55v135h-291v-204h161v74h55v-202h-55v73h-161v-203h131v-55h-262v55h76v462h-77v55h478v-190z" />
    <glyph glyph-name="G" unicode="G" 
d="M579 207h-51v-173q-111 -46 -209 -46q-59 0 -107.5 17.5t-81 46.5t-54.5 67.5t-31.5 80t-9.5 85.5q0 124 72.5 211.5t181.5 87.5q107 0 184 -66v66h55v-213h-55v75q-76 83 -173 83q-84 0 -147 -61.5t-63 -183.5q0 -103 57 -172t171 -69q54 0 155 33v131h-152v55h258v-55z
" />
    <glyph glyph-name="H" unicode="H" 
d="M569 0h-210v55h78v198h-274v-198h79v-55h-212v55h79v462h-79v55h212v-55h-79v-209h274v209h-78v55h210v-55h-78v-462h78v-55z" />
    <glyph glyph-name="I" unicode="I" 
d="M491 0h-382v55h164v462h-164v55h382v-55h-163v-462h163v-55z" />
    <glyph glyph-name="J" unicode="J" 
d="M577 517h-128v-359q0 -170 -172 -170q-83 0 -190 45l-36 15v225h55v-101q0 -35 15 -60.5t35 -38.5t46 -20.5t41 -9t28 -1.5q48 0 80 21q45 31 45 124v330h-198v55h379v-55z" />
    <glyph glyph-name="K" unicode="K" 
d="M612 0h-148q-63 136 -151 249l-35 45l-83 -83v-156h80v-55h-214v55h80v462h-80v55h213v-55h-79v-239l240 239h-59v55h200v-55h-73l-188 -190l40 -50q86 -108 142 -222h115v-55z" />
    <glyph glyph-name="L" unicode="L" 
d="M554 0h-502v55h106v462h-106v55h286v-55h-125v-462h286v202h55v-257z" />
    <glyph glyph-name="M" unicode="M" 
d="M577 0h-160v55h58v462h-11l-143 -376h-42l-146 376h-9v-462h61v-55h-164v55h48v462h-48v55h148l132 -340l130 340h145v-55h-46v-462h47v-55z" />
    <glyph glyph-name="N" unicode="N" 
d="M586 517h-76v-517h-73l-287 494v-439h108v-55h-243v55h80v462h-81v55h156l285 -497v442h-107v55h238v-55z" />
    <glyph glyph-name="O" unicode="O" 
d="M560 287q0 -127 -70 -213t-188 -86q-116 0 -189.5 86.5t-73.5 212.5q0 74 28 140t90 112t146 46q72 0 126 -32.5t80.5 -82.5t38.5 -96t12 -87zM505 285q0 26 -5 55t-19 64t-35.5 62t-59 45.5t-85.5 18.5q-54 0 -96.5 -25.5t-65 -64.5t-34 -79t-11.5 -76q0 -100 57.5 -171
t151.5 -71t148 70.5t54 171.5z" />
    <glyph glyph-name="P" unicode="P" 
d="M553 387q0 -65 -34 -113q-50 -70 -172 -70h-131v-149h153v-55h-286v55h78v462h-78v55h268q54 0 95 -16.5t63.5 -44t33 -58.5t10.5 -66zM498 387q0 41 -16 67q-39 63 -135 63h-131v-258h113q54 0 91.5 11t58.5 46q19 32 19 71z" />
    <glyph glyph-name="Q" unicode="Q" 
d="M564 280q0 -137 -70.5 -214.5t-183.5 -77.5h-16q-14 -13 -38 -25q4 1 20 4t25 3q13 0 26 -2t28 -6.5t22.5 -7.5t26.5 -10.5t23 -9.5q11 -5 29 -5q37 0 73 24l22 -44q-43 -35 -98 -35q-21 0 -41 6q-12 4 -38 14.5t-46.5 16t-41.5 5.5q-32 0 -57.5 -9t-66.5 -30l-15 45
q38 19 90 71l-28 8q-74 21 -120.5 97t-46.5 182q0 96 41 170q35 63 94.5 98.5t127.5 35.5q75 0 131 -37.5t87 -93.5q41 -76 41 -173zM509 279q0 83 -27 134q-31 61 -80 88.5t-98 27.5q-47 0 -95.5 -29t-78.5 -83q-32 -58 -32 -138q0 -66 18.5 -114.5t49.5 -73.5t64 -36.5
t70 -11.5q25 0 50 5t54.5 21t52 40.5t37.5 68.5t15 101z" />
    <glyph glyph-name="R" unicode="R" 
d="M580 0h-129q-27 49 -79 126.5t-83 116.5h-113v-188h79v-55h-212v55h79v462h-79v55h293q84 0 125 -43.5t41 -113.5q0 -79 -46 -119.5t-107 -50.5q65 -82 130 -190h101v-55zM448 413q0 29 -15 57q-24 47 -115 47h-142v-219h100q19 0 34 1t37 4.5t38 11t31.5 19.5t23.5 32.5
t8 46.5z" />
    <glyph glyph-name="S" unicode="S" 
d="M523 159q0 -83 -60.5 -127t-150.5 -44q-111 0 -185 51v-40h-55v180h55v-78q71 -58 176 -58q77 0 121 29t44 78q0 37 -19 55q-37 31 -129.5 39.5t-125.5 22.5q-96 43 -96 135q0 71 53.5 126.5t152.5 55.5q86 0 144 -42v30h54v-185h-54v89q-55 53 -141 53q-67 0 -111 -33
t-44 -81q0 -63 67 -92q34 -15 114.5 -23t115.5 -24q32 -15 53 -46t21 -71z" />
    <glyph glyph-name="T" unicode="T" 
d="M562 371h-55v146h-175v-462h123v-55h-301v55h123v462h-175v-146h-55v201h515v-201z" />
    <glyph glyph-name="U" unicode="U" 
d="M600 517h-79v-319q0 -110 -58 -161q-55 -49 -151 -49q-95 0 -151 45q-39 32 -50.5 78.5t-11.5 115.5v290h-81v55h244v-55h-109v-300q0 -106 54 -145q40 -29 104 -29q156 0 156 156v318h-106v55h239v-55z" />
    <glyph glyph-name="V" unicode="V" 
d="M599 517h-61l-187 -517h-80l-191 517h-70v55h220v-55h-92l173 -468l169 468h-94v55h213v-55z" />
    <glyph glyph-name="W" unicode="W" 
d="M581 517h-45l-56 -517h-61l-118 352l-113 -352h-64l-58 517h-46v55h199v-55h-98l45 -418l116 355h40l118 -353l41 416h-100v55h200v-55z" />
    <glyph glyph-name="X" unicode="X" 
d="M569 0h-210v55h84l-145 201l-148 -201h94v-55h-222v55h65l178 245l-157 217h-66v55h204v-55h-75l126 -174l127 174h-62v55h188v-55h-64l-157 -217l176 -245h64v-55z" />
    <glyph glyph-name="Y" unicode="Y" 
d="M575 517h-67l-173 -295v-167h123v-55h-302v55h124v167l-177 295h-68v55h198v-55h-70l144 -240l142 240h-69v55h195v-55z" />
    <glyph glyph-name="Z" unicode="Z" 
d="M526 0h-444v54l368 463h-282v-147h-54v202h411v-52l-369 -465h315v162h55v-217z" />
    <glyph glyph-name="bracketleft" unicode="[" 
d="M490 -97h-181v745h181v-55h-126v-635h126v-55z" />
    <glyph glyph-name="backslash" unicode="\" 
d="M503 -122l-46 -20l-365 823l46 20z" />
    <glyph glyph-name="bracketright" unicode="]" 
d="M293 -97h-181v55h126v635h-126v55h181v-745z" />
    <glyph glyph-name="asciicircum" unicode="^" 
d="M501 486q-110 38 -200 130q-92 -92 -201 -131v46q72 55 111 103t63 116h51q27 -70 64 -114.5t112 -103.5v-46z" />
    <glyph glyph-name="underscore" unicode="_" 
d="M600 -249h-600v51h600v-51z" />
    <glyph glyph-name="grave" unicode="`" 
d="M458 521l-11 -31l-288 100l34 77z" />
    <glyph glyph-name="a" unicode="a" 
d="M552 0h-135v84q-100 -96 -200 -96q-72 0 -115.5 41t-43.5 94q0 55 53 100.5t164 45.5q53 0 141 -14v31q0 64 -33 84q-34 21 -96 21q-84 0 -171 -42l-14 54q106 44 195 44q119 0 156 -69q17 -31 17 -82v-241h82v-55zM416 150v50q-78 13 -128 13q-98 0 -138 -28
q-36 -25 -36 -63q0 -30 30 -54.5t74 -24.5q109 0 198 107z" />
    <glyph glyph-name="b" unicode="b" 
d="M556 217q0 -87 -60.5 -158t-154.5 -71q-117 0 -177 77q-2 3 -3 4v-69h-137v55h83v517h-83v55h137v-267q12 17 30.5 34.5t60 35t89.5 17.5q84 0 149.5 -62t65.5 -168zM501 217q0 68 -43.5 121.5t-122.5 53.5q-67 0 -119 -48t-52 -124q0 -86 52 -131.5t119 -45.5
q66 0 116 50t50 124z" />
    <glyph glyph-name="c" unicode="c" 
d="M532 67q-101 -79 -223 -79q-99 0 -168 64t-69 171q0 36 14 73.5t41.5 72t76 56.5t110.5 22q81 0 152 -48v48h55v-175h-55v69q-60 50 -153 50q-83 0 -134.5 -50.5t-51.5 -120.5q0 -21 5.5 -43.5t20 -47t36 -43.5t57 -31.5t80.5 -12.5q53 0 103 26.5t81 53.5z" />
    <glyph glyph-name="d" unicode="d" 
d="M583 0h-134v76q-59 -88 -175 -88q-104 0 -163.5 68.5t-59.5 161.5q0 98 63.5 163.5t163.5 65.5q109 0 171 -78v203h-136v55h190v-572h80v-55zM444 222q0 29 -8 56.5t-25.5 54t-52.5 43t-83 16.5q-73 0 -121 -51.5t-48 -122.5q0 -70 45.5 -122.5t123.5 -52.5q75 0 122 50
t47 129z" />
    <glyph glyph-name="e" unicode="e" 
d="M536 51q-114 -63 -229 -63q-123 0 -183.5 65.5t-60.5 163.5q0 102 68.5 166t170.5 64q114 0 171 -67.5t57 -169.5h-410v-8q0 -39 19 -75.5t47 -54.5q48 -30 130 -30q93 0 203 62zM471 265q0 12 -7.5 30.5t-24.5 41.5t-53 38.5t-84 15.5q-79 0 -126 -38t-54 -88h349z" />
    <glyph glyph-name="f" unicode="f" 
d="M519 613l-15 -54q-72 12 -129 12q-41 0 -66 -6t-35 -20t-12 -25.5t-2 -33.5v-52h216v-55h-216v-324h216v-55h-378v55h106v324h-106v55h106v52q0 41 4 56q18 84 165 84q60 0 146 -13z" />
    <glyph glyph-name="g" unicode="g" 
d="M565 379h-62v-408q0 -80 -54 -122.5t-149 -42.5q-90 0 -220 30l11 54q133 -30 187 -30q92 0 131.5 27.5t39.5 95.5v125q-29 -35 -79.5 -54t-102.5 -19q-111 0 -171.5 61.5t-60.5 142.5q0 79 63 143.5t170 64.5q57 0 105.5 -20.5t75.5 -50.5v58h116v-55zM446 241
q0 23 -8.5 47t-26.5 48.5t-55 40t-86 15.5q-74 0 -127 -43t-53 -110q0 -62 51 -105.5t127 -43.5q75 0 126.5 43.5t51.5 107.5z" />
    <glyph glyph-name="h" unicode="h" 
d="M582 0h-218v55h82v232q0 49 -20.5 77t-76.5 28q-78 0 -173 -87v-250h83v-55h-220v55h83v517h-85v55h139v-262q93 82 187 82q137 0 137 -138v-254h82v-55z" />
    <glyph glyph-name="i" unicode="i" 
d="M333 531h-71v123h71v-123zM506 0h-404v55h176v324h-152v55h207v-379h173v-55z" />
    <glyph glyph-name="j" unicode="j" 
d="M378 531h-71v123h71v-123zM398 -18q0 -62 -20.5 -99.5t-66.5 -59.5q-33 -16 -84 -16q-77 0 -142 15l8 53q68 -14 124 -14h9q17 0 30 2t31.5 9t31.5 25t20 46q4 14 4 54v382h-258v55h313v-452z" />
    <glyph glyph-name="k" unicode="k" 
d="M567 0h-212v55h55q-34 43 -85.5 94.5t-85.5 79.5l-57 -42v-187h-137v55h83v517h-85v55h139v-385l176 137h-46v55h216v-55h-96l-155 -122l73 -68q52 -48 123 -134h94v-55z" />
    <glyph glyph-name="l" unicode="l" 
d="M501 0h-404v55h175v517h-170v55h225v-572h174v-55z" />
    <glyph glyph-name="m" unicode="m" 
d="M600 0h-107v285q0 26 -1 39.5t-9 31t-23 28.5q-12 8 -31 8q-25 0 -48 -18t-32.5 -33t-13.5 -24v-262h52v-55h-107v305q0 8 -2 18.5t-7.5 27.5t-21 28.5t-38.5 11.5q-21 0 -39 -11t-27.5 -21.5t-22.5 -30.5v-273h51v-55h-106v379h-52v55h107v-45q54 58 102 58
q36 0 62 -20.5t37 -50.5q55 71 118 71q33 0 56 -14q51 -31 51 -116v-262h52v-55z" />
    <glyph glyph-name="n" unicode="n" 
d="M576 0h-218v55h82v255q0 82 -99 82q-45 0 -91.5 -23t-79.5 -59v-255h83v-55h-220v55h83v323h-83v56h137v-63q84 76 187 76q63 0 100 -30q37 -31 37 -106v-256h82v-55z" />
    <glyph glyph-name="o" unicode="o" 
d="M554 217q0 -100 -68 -164.5t-180 -64.5q-116 0 -185 64t-69 165q0 105 72 167.5t181 62.5q68 0 119 -23t78 -59.5t39.5 -74t12.5 -73.5zM499 216q0 24 -8.5 51t-28 56.5t-60.5 49t-98 19.5q-90 0 -143.5 -51.5t-53.5 -124.5q0 -68 52 -120.5t146 -52.5q85 0 139.5 49
t54.5 124z" />
    <glyph glyph-name="p" unicode="p" 
d="M550 221q0 -100 -63.5 -166.5t-155.5 -66.5q-114 0 -177 81v-208h153v-55h-290v55h83v518h-83v55h137v-70q64 83 182 83q60 0 111 -30.5t80 -90.5q23 -48 23 -105zM495 220q0 25 -8 52t-25 55.5t-51.5 46.5t-80.5 18q-78 0 -125.5 -51t-47.5 -122q0 -77 50 -126.5
t121 -49.5q66 0 116.5 49t50.5 128z" />
    <glyph glyph-name="q" unicode="q" 
d="M582 -194h-290v55h153v209q-68 -82 -177 -82q-92 0 -155.5 66.5t-63.5 166.5q0 57 23 105q29 60 81.5 90.5t113.5 30.5q58 0 106 -23.5t72 -57.5v68h137v-55h-83v-518h83v-55zM445 219q0 72 -48.5 122.5t-127.5 50.5q-46 0 -80.5 -18t-51.5 -46.5t-25 -55.5t-8 -52
q0 -79 50.5 -128t116.5 -49q67 0 120.5 48t53.5 128z" />
    <glyph glyph-name="r" unicode="r" 
d="M568 358l-54 -5q-8 40 -55 40q-38 0 -80 -28.5t-125 -108.5v-201h194v-55h-374v55h125v324h-125v55h180v-116q10 8 37.5 33.5t43 37t40.5 28t50 23.5t52 7q51 0 73 -34q13 -20 18 -55z" />
    <glyph glyph-name="s" unicode="s" 
d="M516 131q0 -64 -53 -103.5t-137 -39.5q-37 0 -72 7.5t-55 15t-51 22.5v-45h-55v170h55v-59q73 -56 166 -56q19 0 39.5 2.5t47 10t43.5 25.5t17 44q0 19 -7 29q-9 13 -25.5 21t-28 9.5t-37 2.5t-32.5 2q-10 1 -43 3t-47 3.5t-39 6.5t-42.5 14t-32.5 23q-26 23 -26 69
q0 64 49.5 101.5t132.5 37.5q88 0 155 -40v40h54v-158h-54v59q-68 44 -152 44q-27 0 -54 -5t-52 -23.5t-25 -46.5q0 -29 26 -46q16 -10 44 -16.5t49 -8t61 -3.5t53 -3q60 -4 94 -28t34 -81z" />
    <glyph glyph-name="t" unicode="t" 
d="M515 44q-131 -56 -212 -56q-24 0 -47.5 5t-51 17.5t-44.5 40.5t-17 68v260h-71v55h71v129h54v-129h258v-55h-258v-236q0 -63 37 -82q35 -18 80 -18q19 0 40 3.5t44.5 11t37.5 12t40.5 15.5t32.5 13z" />
    <glyph glyph-name="u" unicode="u" 
d="M569 0h-136v67q-82 -79 -167 -79q-67 0 -110 33q-47 36 -47 109v249h-83v55h137v-277q0 -67 37 -94q29 -21 77 -21q81 0 156 94v243h-83v55h137v-379h82v-55z" />
    <glyph glyph-name="v" unicode="v" 
d="M586 379h-79l-171 -379h-64l-171 379h-86v55h218v-55h-74l145 -325l145 325h-73v55h210v-55z" />
    <glyph glyph-name="w" unicode="w" 
d="M589 379h-35l-105 -379h-61l-79 251l-79 -251h-63l-108 379h-34v55h163v-55h-73l86 -301l84 272h47l86 -274l84 303h-71v55h158v-55z" />
    <glyph glyph-name="x" unicode="x" 
d="M579 0h-207v55h62l-134 138l-136 -138h64v-55h-206v55h74l170 174l-147 150h-79v55h197v-55h-50l112 -115l111 115h-41v55h186v-55h-77l-145 -151l170 -173h76v-55z" />
    <glyph glyph-name="y" unicode="y" 
d="M590 379h-63l-292 -518h85v-55h-254v55h109l97 165l-184 353h-67v55h191v-55h-64l153 -299l166 299h-56v55h179v-55z" />
    <glyph glyph-name="z" unicode="z" 
d="M506 0h-403v52l324 327h-257v-89h-54v144h390v-51l-326 -328h271v92h55v-147z" />
    <glyph glyph-name="braceleft" unicode="{" 
d="M420 -230q-104 4 -132 62q-18 37 -18 94v120q0 97 -17 133t-73 62v52q55 26 72.5 62.5t17.5 132.5v120q0 57 18 94q28 58 132 62v-55q-48 -3 -71.5 -21t-23.5 -64v-174q0 -35 -2.5 -58.5t-21 -61t-53.5 -63.5q35 -23 53.5 -62t21 -64t2.5 -61v-170q0 -46 23.5 -64
t71.5 -21v-55z" />
    <glyph glyph-name="bar" unicode="|" 
d="M326 -249h-51v999h51v-999z" />
    <glyph glyph-name="braceright" unicode="}" 
d="M420 241q-56 -26 -73 -62t-17 -133v-120q0 -57 -18 -94q-28 -58 -132 -62v55q48 3 71.5 21t23.5 64v170q0 36 2.5 61t21 64t53.5 62q-35 26 -53.5 63.5t-21 61t-2.5 58.5v174q0 46 -23.5 64t-71.5 21v55q104 -4 132 -62q18 -37 18 -94v-120q0 -96 17.5 -132.5t72.5 -62.5
v-52z" />
    <glyph glyph-name="asciitilde" unicode="~" 
d="M525 238q-61 -95 -129 -95q-24 0 -96 35q-68 35 -88 35q-8 0 -16.5 -3t-13.5 -6.5t-12.5 -12t-10.5 -12.5t-11 -15t-10 -14l-47 37q4 5 15 17.5t15 17.5t13.5 14.5t16 13t16 8.5t20 7t22.5 2q44 0 107 -34q64 -35 81 -35q5 0 10 1.5t9.5 4t10 7t9 8t8.5 9.5t7.5 10
t7 10.5t6.5 9t6 9t4 7.5z" />
    <glyph glyph-name="uni00A0" unicode="&#xa0;" 
 />
    <glyph glyph-name="exclamdown" unicode="&#xa1;" 
d="M375 391q0 -23 -20.5 -41.5t-50.5 -18.5q-25 0 -45.5 18t-20.5 41q0 25 19.5 43t48.5 18q28 0 48.5 -18.5t20.5 -41.5zM346 -132h-78l16 391h44z" />
    <glyph glyph-name="cent" unicode="&#xa2;" 
d="M505 156q-99 -64 -176 -66v-143h-55v143q-68 4 -119 55.5t-51 134.5q0 85 53 135.5t117 56.5v142h55v-141q44 -5 108 -32v41h54v-153h-54v51q-56 37 -126 37t-111.5 -41t-41.5 -98q0 -48 38.5 -90.5t118.5 -42.5q84 0 175 58z" />
    <glyph glyph-name="sterling" unicode="&#xa3;" 
d="M520 30q-51 -43 -113 -43q-10 0 -43 7q-10 2 -32.5 8.5t-40 10t-33.5 3.5q-52 0 -116 -29l-25 49q79 71 79 162q0 17 -10 68h-107v55h91q-24 84 -24 112q0 61 53.5 106t130.5 45q62 0 107 -31t68 -76l-49 -15q-18 33 -52.5 50t-74.5 17q-48 0 -88.5 -27t-40.5 -86
q0 -28 20 -95h224v-55h-206q13 -50 13 -77t-15.5 -67t-54.5 -75h3q46 24 94 24q22 0 45 -6q9 -2 29 -9t35.5 -10.5t29.5 -3.5q34 0 82 31z" />
    <glyph glyph-name="currency" unicode="&#xa4;" 
d="M536 153l-31 -31l-65 66q-63 -47 -141 -47q-74 0 -137 47l-68 -66l-31 30l68 67q-48 57 -48 142q0 77 47 135l-69 66l32 33l66 -67q59 48 143 48q80 0 137 -47l65 66l32 -31l-67 -67q46 -53 46 -136q0 -82 -46 -141zM467 359q0 67 -47.5 117.5t-118.5 50.5
q-75 0 -122 -51t-47 -117q0 -71 49.5 -120t118.5 -49q67 0 117 47t50 122z" />
    <glyph glyph-name="yen" unicode="&#xa5;" 
d="M555 517h-76l-128 -193h129v-53h-149v-74h149v-53h-149v-89h107v-55h-270v55h108v89h-149v53h149v74h-149v53h125l-129 193h-77v55h204v-55h-66l117 -185l118 185h-67v55h203v-55z" />
    <glyph glyph-name="brokenbar" unicode="&#xa6;" 
d="M326 276h-51v448h51v-448zM326 -224h-51v448h51v-448z" />
    <glyph glyph-name="section" unicode="&#xa7;" 
d="M489 207v-1q0 -85 -91 -104l23 -19q40 -33 40 -77q0 -31 -18 -49t-42 -23q-26 -5 -76 -5h-200v145h54v-90h190q22 0 30 10.5t8 21.5q0 24 -32 48l-213 163q-44 33 -44 85q0 40 26.5 66t55.5 34l-20 18q-43 39 -43 74q0 24 12.5 43t34.5 26q33 11 100 11h183v-145h-54v90
h-166q-56 0 -56 -35q0 -14 31 -38l215 -165q52 -40 52 -84zM438 202q0 26 -37 54l-160 117q-22 0 -45.5 -18t-23.5 -44q0 -24 32 -50l155 -118q24 0 41 7t24.5 17.5t10.5 19t3 15.5z" />
    <glyph glyph-name="dieresis" unicode="&#xa8;" 
d="M412 518h-83v124h83v-124zM266 518h-85v124h85v-124z" />
    <glyph glyph-name="copyright" unicode="&#xa9;" 
d="M533 513q0 -102 -68 -170t-163 -68q-97 0 -166 68t-69 165q0 104 70.5 170.5t164.5 66.5t162.5 -67t68.5 -165zM498 511q0 82 -56.5 140.5t-138.5 58.5q-88 0 -144 -60t-56 -141q0 -83 59 -140.5t139 -57.5q83 0 140 58t57 142zM409 424q-39 -41 -97 -41
q-50 0 -89.5 38.5t-39.5 96.5q0 55 37 94t93 39q44 0 93 -37l-30 -31q-27 32 -65 32q-36 0 -64 -28t-28 -71q0 -40 26.5 -68.5t65.5 -28.5q38 0 69 34z" />
    <glyph glyph-name="ordfeminine" unicode="&#xaa;" 
d="M433 350h-90v38q-51 -44 -102 -44q-38 0 -61.5 21.5t-23.5 48.5q0 26 26.5 49t91.5 23q26 0 68 -6v10q0 24 -12.5 38t-52.5 14q-38 0 -90 -22l-10 42q66 22 111 22q37 0 60 -11q23 -10 30 -27.5t7 -48.5v-105h48v-42zM342 438q-38 6 -75 6q-69 0 -69 -30q0 -27 46 -27
q60 0 98 51z" />
    <glyph glyph-name="guillemotleft" unicode="&#xab;" 
d="M516 78l-17 -48l-242 192l242 192l17 -48l-184 -144zM344 78l-17 -48l-242 192l242 192l17 -48l-185 -144z" />
    <glyph glyph-name="logicalnot" unicode="&#xac;" 
d="M515 94h-55v187h-374v55h429v-242z" />
    <glyph glyph-name="uni00AD" unicode="&#xad;" 
d="M459 221h-320v55h320v-55z" />
    <glyph glyph-name="registered" unicode="&#xae;" 
d="M533 513q0 -102 -68 -170t-163 -68q-97 0 -166 68t-69 165q0 104 70.5 170.5t164.5 66.5t162.5 -67t68.5 -165zM498 511q0 82 -56.5 140.5t-138.5 58.5q-88 0 -144 -60t-56 -141q0 -83 59 -140.5t139 -57.5q83 0 140 58t57 142zM386 394h-46l-39 101h-41v-101h-37v246h80
q81 0 81 -72q0 -49 -41 -64zM347 568q0 35 -45 35h-42v-71h43q44 0 44 36z" />
    <glyph glyph-name="macron" unicode="&#xaf;" 
d="M517 545h-436v52h436v-52z" />
    <glyph glyph-name="degree" unicode="&#xb0;" 
d="M451 429q0 -70 -45.5 -114.5t-110.5 -44.5q-66 0 -110.5 46t-44.5 111t45 111t112 46q74 0 114 -49.5t40 -105.5zM398 427q0 17 -7.5 38.5t-32 42.5t-61.5 21q-48 0 -75.5 -32.5t-27.5 -69.5q0 -39 29 -70.5t72 -31.5q42 0 72.5 29.5t30.5 72.5z" />
    <glyph glyph-name="plusminus" unicode="&#xb1;" 
d="M515 190h-187v-188h-55v188h-187v55h187v188h55v-188h187v-55zM515 -107h-429v55h429v-55z" />
    <glyph glyph-name="twosuperior" unicode="&#xb2;" 
d="M416 243h-232v47l129 100q54 41 54 80q0 24 -17.5 42t-45.5 18q-23 0 -41 -13.5t-18 -35.5q0 -6 1 -9h-49v58q43 49 107 49q53 0 82.5 -30t29.5 -72q0 -45 -31 -79.5t-124 -104.5h155v-50z" />
    <glyph glyph-name="threesuperior" unicode="&#xb3;" 
d="M415 336q0 -45 -35.5 -72.5t-82.5 -27.5q-56 0 -112 28l14 51q51 -29 95 -29q36 0 54 15.5t18 34.5q0 46 -85 46h-14v49h6q36 0 55 14t19 37q0 22 -17 35t-40 13q-32 0 -81 -35l-19 47q57 37 107 37q36 0 62 -18q38 -26 38 -80q0 -42 -30 -67q24 -12 36 -28.5t12 -49.5z
" />
    <glyph glyph-name="acute" unicode="&#xb4;" 
d="M467 590l-287 -100l-12 31l266 145z" />
    <glyph glyph-name="mu" unicode="&#xb5;" 
d="M573 0h-138v75q-25 -44 -73.5 -66t-93.5 -22q-64 0 -103 43v-197h-55v546h-83v55h138v-284q0 -47 29.5 -77.5t78.5 -30.5q86 0 124 56.5t38 134.5v146h-83v55h138v-378h83v-56z" />
    <glyph glyph-name="paragraph" unicode="&#xb6;" 
d="M510 703h-44v-857h-38v857h-69v-857h-39v434q-81 13 -132.5 51.5t-69.5 81.5t-18 92q0 69 34 122q76 118 264 118h112v-42z" />
    <glyph glyph-name="periodcentered" unicode="&#xb7;" 
d="M374 277q0 -24 -21 -41t-46 -17q-31 0 -51 18t-20 41q0 25 20.5 42.5t49.5 17.5t48.5 -18.5t19.5 -42.5z" />
    <glyph glyph-name="cedilla" unicode="&#xb8;" 
d="M371 -99q0 -34 -21 -58.5t-51 -24.5q-24 0 -56 19l14 41q26 -15 40 -15q13 0 20.5 8.5t7.5 19.5q0 27 -28 27l-20 -5l5 87h46v-37q16 -2 29.5 -18t13.5 -44z" />
    <glyph glyph-name="onesuperior" unicode="&#xb9;" 
d="M419 243h-236v50h93v224l-94 -13v50l144 22v-283h93v-50z" />
    <glyph glyph-name="ordmasculine" unicode="&#xba;" 
d="M432 464q0 -58 -42.5 -89t-88.5 -31q-24 0 -51.5 10t-52.5 39.5t-25 71.5q0 57 41 88t90 31q57 0 93 -35t36 -85zM389 465q0 25 -20 50.5t-65 25.5q-41 0 -65 -21.5t-24 -54.5q0 -36 26.5 -57t61.5 -21q34 0 60 21t26 57z" />
    <glyph glyph-name="guillemotright" unicode="&#xbb;" 
d="M515 222l-242 -192l-17 48l185 144l-185 144l17 48zM343 222l-242 -192l-17 48l184 144l-184 144l17 48z" />
    <glyph glyph-name="onequarter" unicode="&#xbc;" 
d="M595 -77h-150v50h54v48h-138v36l130 194h58v-179h46v-51h-46v-48h46v-50zM499 72v108l-75 -108h75zM639 561l-483 -661l-40 28l482 661zM281 243h-235v50h93v224l-94 -13v50l143 22v-283h93v-50z" />
    <glyph glyph-name="onehalf" unicode="&#xbd;" 
d="M600 561l-482 -661l-41 28l482 661zM276 243h-235v50h93v224l-94 -13v50l143 22v-283h93v-50zM583 -78h-231v47l128 100q54 41 54 79q0 24 -17.5 42t-45.5 18q-23 0 -40.5 -13.5t-17.5 -34.5q0 -7 1 -10h-49v58q43 49 106 49q53 0 82.5 -30t29.5 -72q0 -45 -30.5 -79
t-123.5 -104h154v-50z" />
    <glyph glyph-name="threequarters" unicode="&#xbe;" 
d="M567 -77h-150v50h55v48h-139v36l130 194h58v-180h46v-50h-46v-48h46v-50zM472 71v108l-75 -108h75zM604 561l-482 -661l-40 27l481 662zM276 336q0 -45 -35.5 -72.5t-82.5 -27.5q-55 0 -111 28l14 51q51 -29 94 -29q36 0 54 15.5t18 34.5q0 46 -84 46h-14v49h6
q36 0 54.5 14t18.5 37q0 22 -17 35t-40 13q-31 0 -80 -35l-19 47q57 37 106 37q36 0 62 -18q38 -26 38 -80q0 -42 -30 -67q24 -12 36 -28.5t12 -49.5z" />
    <glyph glyph-name="questiondown" unicode="&#xbf;" 
d="M400 393q0 -25 -20.5 -42.5t-49.5 -17.5t-48.5 18.5t-19.5 42.5t21 41t46 17q31 0 51 -18t20 -41zM481 -110q-89 -34 -165 -34q-58 0 -105.5 23.5t-71.5 69.5q-18 34 -18 75q0 42 17 74.5t48 52.5t57 30t61 20v59h55v-105q-31 -6 -48 -10t-47 -14.5t-46.5 -23.5t-30 -35
t-13.5 -50q0 -39 32.5 -75t106.5 -36q57 0 114 27v62h54v-110z" />
    <glyph glyph-name="Agrave" unicode="&#xc0;" 
d="M603 0h-209v55h98l-45 114h-289l-43 -114h91v-55h-212v55h62l183 462h-143v55h245l208 -517h54v-55zM425 224l-126 309l-119 -309h245zM445 657l-11 -30l-288 100l34 76z" />
    <glyph glyph-name="Aacute" unicode="&#xc1;" 
d="M603 0h-209v55h98l-45 114h-289l-43 -114h91v-55h-212v55h62l183 462h-143v55h245l208 -517h54v-55zM425 224l-126 309l-119 -309h245zM468 727l-287 -100l-12 30l266 146z" />
    <glyph glyph-name="Acircumflex" unicode="&#xc2;" 
d="M603 0h-209v55h98l-45 114h-289l-43 -114h91v-55h-212v55h62l183 462h-143v55h245l208 -517h54v-55zM425 224l-126 309l-119 -309h245zM484 645l-41 -18l-146 109l-149 -109l-41 18l149 158h81z" />
    <glyph glyph-name="Atilde" unicode="&#xc3;" 
d="M603 0h-209v55h98l-45 114h-289l-43 -114h91v-55h-212v55h62l183 462h-143v55h245l208 -517h54v-55zM425 224l-126 309l-119 -309h245zM503 768q-11 -41 -39.5 -74.5t-74.5 -33.5q-32 0 -83 35t-72 35q-51 0 -76 -65l-51 11q15 45 49.5 75.5t75.5 30.5q31 0 76 -35
q47 -35 72 -35q26 0 44.5 20.5t27.5 45.5z" />
    <glyph glyph-name="Adieresis" unicode="&#xc4;" 
d="M603 0h-209v55h98l-45 114h-289l-43 -114h91v-55h-212v55h62l183 462h-143v55h245l208 -517h54v-55zM425 224l-126 309l-119 -309h245zM413 660h-84v125h84v-125zM266 660h-84v125h84v-125z" />
    <glyph glyph-name="Aring" unicode="&#xc5;" 
d="M603 0h-209v55h98l-45 114h-289l-43 -114h91v-55h-212v55h62l183 462h-143v55h245l208 -517h54v-55zM425 224l-126 309l-119 -309h245zM395 704q0 -42 -26 -70.5t-70 -28.5q-41 0 -70.5 26.5t-29.5 70.5q0 42 27.5 70.5t70.5 28.5q52 0 75 -31.5t23 -65.5zM336 702
q0 39 -38 39q-19 0 -29 -10.5t-10 -26.5q0 -39 40 -39q17 0 27 10.5t10 26.5z" />
    <glyph glyph-name="AE" unicode="&#xc6;" 
d="M557 0h-262v168h-134l-40 -113h86v-55h-196v55h53l175 462h-90v55h408v-158h-55v103h-152v-203h71v57h54v-170h-54v58h-71v-204h152v101h55v-156zM295 223v293l-114 -293h114z" />
    <glyph glyph-name="Ccedilla" unicode="&#xc7;" 
d="M557 61q-100 -74 -217 -74h-10v-22q16 -3 28 -20q14 -17 14 -47q0 -44 -21 -68t-49 -24t-57 33l16 40q24 -15 38 -15q16 0 22.5 10t6.5 19q0 26 -30 26q-12 0 -20 -5l5 78q-70 13 -120 58.5t-73.5 108.5t-23.5 138q0 118 73 202.5t188 84.5q79 0 144 -42l30 -19v61h54
v-213h-54v81q-73 78 -167 78q-32 0 -65.5 -12t-68 -37t-56.5 -74.5t-22 -114.5q0 -116 63 -183t160 -67q98 0 188 66z" />
    <glyph glyph-name="Egrave" unicode="&#xc8;" 
d="M540 0h-483v55h79v462h-81v55h479v-191h-55v136h-289v-204h160v74h55v-202h-55v73h-160v-203h295v136h55v-191zM459 657l-11 -30l-288 100l34 76z" />
    <glyph glyph-name="Eacute" unicode="&#xc9;" 
d="M540 0h-483v55h79v462h-81v55h479v-191h-55v136h-289v-204h160v74h55v-202h-55v73h-160v-203h295v136h55v-191zM482 727l-287 -100l-12 30l266 146z" />
    <glyph glyph-name="Ecircumflex" unicode="&#xca;" 
d="M540 0h-483v55h79v462h-81v55h479v-191h-55v136h-289v-204h160v74h55v-202h-55v73h-160v-203h295v136h55v-191zM498 645l-41 -18l-146 109l-149 -109l-41 18l149 158h81z" />
    <glyph glyph-name="Edieresis" unicode="&#xcb;" 
d="M540 0h-483v55h79v462h-81v55h479v-191h-55v136h-289v-204h160v74h55v-202h-55v73h-160v-203h295v136h55v-191zM427 660h-84v125h84v-125zM280 660h-84v125h84v-125z" />
    <glyph glyph-name="Igrave" unicode="&#xcc;" 
d="M491 0h-382v55h164v462h-164v55h382v-55h-163v-462h163v-55zM452 657l-11 -30l-288 100l34 76z" />
    <glyph glyph-name="Iacute" unicode="&#xcd;" 
d="M491 0h-382v55h164v462h-164v55h382v-55h-163v-462h163v-55zM475 727l-287 -100l-12 30l266 146z" />
    <glyph glyph-name="Icircumflex" unicode="&#xce;" 
d="M491 0h-382v55h164v462h-164v55h382v-55h-163v-462h163v-55zM491 645l-41 -18l-146 109l-149 -109l-41 18l149 158h81z" />
    <glyph glyph-name="Idieresis" unicode="&#xcf;" 
d="M491 0h-382v55h164v462h-164v55h382v-55h-163v-462h163v-55zM420 660h-84v125h84v-125zM273 660h-84v125h84v-125z" />
    <glyph glyph-name="Eth" unicode="&#xd0;" 
d="M558 299q0 -131 -50 -203t-134 -87q-51 -9 -126 -9h-214v55h78v198h-75v54h75v210h-78v55h242q64 0 99 -7q84 -18 133.5 -83.5t49.5 -182.5zM503 291q0 62 -17 110t-43 70q-35 30 -70 38t-108 8h-99v-210h168v-54h-168v-198h110q141 0 187 77q40 67 40 159z" />
    <glyph glyph-name="Ntilde" unicode="&#xd1;" 
d="M586 517h-76v-517h-73l-287 494v-439h108v-55h-243v55h80v462h-81v55h156l285 -497v442h-107v55h238v-55zM510 768q-11 -41 -39.5 -74.5t-74.5 -33.5q-32 0 -83 35t-72 35q-51 0 -76 -65l-51 11q15 45 49.5 75.5t75.5 30.5q31 0 76 -35q47 -35 72 -35q26 0 44.5 20.5
t27.5 45.5z" />
    <glyph glyph-name="Ograve" unicode="&#xd2;" 
d="M560 287q0 -127 -70 -213t-188 -86q-116 0 -189.5 86.5t-73.5 212.5q0 74 28 140t90 112t146 46q72 0 126 -32.5t80.5 -82.5t38.5 -96t12 -87zM505 285q0 26 -5 55t-19 64t-35.5 62t-59 45.5t-85.5 18.5q-54 0 -96.5 -25.5t-65 -64.5t-34 -79t-11.5 -76q0 -100 57.5 -171
t151.5 -71t148 70.5t54 171.5zM452 657l-11 -30l-288 100l34 76z" />
    <glyph glyph-name="Oacute" unicode="&#xd3;" 
d="M560 287q0 -127 -70 -213t-188 -86q-116 0 -189.5 86.5t-73.5 212.5q0 74 28 140t90 112t146 46q72 0 126 -32.5t80.5 -82.5t38.5 -96t12 -87zM505 285q0 26 -5 55t-19 64t-35.5 62t-59 45.5t-85.5 18.5q-54 0 -96.5 -25.5t-65 -64.5t-34 -79t-11.5 -76q0 -100 57.5 -171
t151.5 -71t148 70.5t54 171.5zM475 727l-287 -100l-12 30l266 146z" />
    <glyph glyph-name="Ocircumflex" unicode="&#xd4;" 
d="M560 287q0 -127 -70 -213t-188 -86q-116 0 -189.5 86.5t-73.5 212.5q0 74 28 140t90 112t146 46q72 0 126 -32.5t80.5 -82.5t38.5 -96t12 -87zM505 285q0 26 -5 55t-19 64t-35.5 62t-59 45.5t-85.5 18.5q-54 0 -96.5 -25.5t-65 -64.5t-34 -79t-11.5 -76q0 -100 57.5 -171
t151.5 -71t148 70.5t54 171.5zM491 645l-41 -18l-146 109l-149 -109l-41 18l149 158h81z" />
    <glyph glyph-name="Otilde" unicode="&#xd5;" 
d="M560 287q0 -127 -70 -213t-188 -86q-116 0 -189.5 86.5t-73.5 212.5q0 74 28 140t90 112t146 46q72 0 126 -32.5t80.5 -82.5t38.5 -96t12 -87zM505 285q0 26 -5 55t-19 64t-35.5 62t-59 45.5t-85.5 18.5q-54 0 -96.5 -25.5t-65 -64.5t-34 -79t-11.5 -76q0 -100 57.5 -171
t151.5 -71t148 70.5t54 171.5zM510 768q-11 -41 -39.5 -74.5t-74.5 -33.5q-32 0 -83 35t-72 35q-51 0 -76 -65l-51 11q15 45 49.5 75.5t75.5 30.5q31 0 76 -35q47 -35 72 -35q26 0 44.5 20.5t27.5 45.5z" />
    <glyph glyph-name="Odieresis" unicode="&#xd6;" 
d="M560 287q0 -127 -70 -213t-188 -86q-116 0 -189.5 86.5t-73.5 212.5q0 74 28 140t90 112t146 46q72 0 126 -32.5t80.5 -82.5t38.5 -96t12 -87zM505 285q0 26 -5 55t-19 64t-35.5 62t-59 45.5t-85.5 18.5q-54 0 -96.5 -25.5t-65 -64.5t-34 -79t-11.5 -76q0 -100 57.5 -171
t151.5 -71t148 70.5t54 171.5zM420 660h-84v125h84v-125zM273 660h-84v125h84v-125z" />
    <glyph glyph-name="multiply" unicode="&#xd7;" 
d="M516 40l-40 -40l-176 175l-175 -175l-39 38l176 176l-177 176l39 39l176 -175l175 176l39 -38l-175 -177z" />
    <glyph glyph-name="Oslash" unicode="&#xd8;" 
d="M560 287q0 -127 -70 -213t-188 -86q-85 0 -150 49l-49 -64l-43 32l52 69q-73 84 -73 213q0 74 28 140t90 112t146 46q91 0 155 -54l41 54l43 -33l-46 -61q64 -86 64 -204zM505 285q0 91 -44 160l-276 -363q52 -39 118 -39q94 0 148 70.5t54 171.5zM424 487
q-50 43 -123 43q-44 0 -80.5 -17t-59.5 -43.5t-38.5 -60t-22 -65t-6.5 -59.5q0 -96 53 -165z" />
    <glyph glyph-name="Ugrave" unicode="&#xd9;" 
d="M600 517h-79v-319q0 -110 -58 -161q-55 -49 -151 -49q-95 0 -151 45q-39 32 -50.5 78.5t-11.5 115.5v290h-81v55h244v-55h-109v-300q0 -106 54 -145q40 -29 104 -29q156 0 156 156v318h-106v55h239v-55zM459 657l-11 -30l-288 100l34 76z" />
    <glyph glyph-name="Uacute" unicode="&#xda;" 
d="M600 517h-79v-319q0 -110 -58 -161q-55 -49 -151 -49q-95 0 -151 45q-39 32 -50.5 78.5t-11.5 115.5v290h-81v55h244v-55h-109v-300q0 -106 54 -145q40 -29 104 -29q156 0 156 156v318h-106v55h239v-55zM482 727l-287 -100l-12 30l266 146z" />
    <glyph glyph-name="Ucircumflex" unicode="&#xdb;" 
d="M600 517h-79v-319q0 -110 -58 -161q-55 -49 -151 -49q-95 0 -151 45q-39 32 -50.5 78.5t-11.5 115.5v290h-81v55h244v-55h-109v-300q0 -106 54 -145q40 -29 104 -29q156 0 156 156v318h-106v55h239v-55zM498 645l-41 -18l-146 109l-149 -109l-41 18l149 158h81z" />
    <glyph glyph-name="Udieresis" unicode="&#xdc;" 
d="M600 517h-79v-319q0 -110 -58 -161q-55 -49 -151 -49q-95 0 -151 45q-39 32 -50.5 78.5t-11.5 115.5v290h-81v55h244v-55h-109v-300q0 -106 54 -145q40 -29 104 -29q156 0 156 156v318h-106v55h239v-55zM427 660h-84v125h84v-125zM280 660h-84v125h84v-125z" />
    <glyph glyph-name="Yacute" unicode="&#xdd;" 
d="M575 517h-67l-173 -295v-167h123v-55h-302v55h124v167l-177 295h-68v55h198v-55h-70l144 -240l142 240h-69v55h195v-55zM480 727l-287 -100l-12 30l266 146z" />
    <glyph glyph-name="Thorn" unicode="&#xde;" 
d="M585 286q0 -83 -56 -130q-49 -42 -151 -42h-140v-59h153v-55h-322v55h115v462h-115v55h281v-55h-112v-58h157q83 0 136.5 -46t53.5 -127zM530 284q0 58 -37.5 89t-90.5 31h-164v-235h122q33 0 54 2t47.5 11.5t42.5 28.5q26 29 26 73z" />
    <glyph glyph-name="germandbls" unicode="&#xdf;" 
d="M586 135q0 -55 -37 -90t-81 -46t-92 -11q-88 0 -160 46l22 55q57 -46 137 -46q17 0 37 2.5t50 10t49.5 26.5t19.5 47q0 16 -4 27.5t-14 19t-17 11t-21 9.5l-102 39q-102 38 -102 108q0 37 27 61q16 15 69.5 37t69.5 39q12 12 12 35q0 19 -10 31t-32.5 17t-43 6.5
t-55.5 1.5q-75 0 -100 -19.5t-25 -73.5v-478h-136v55h82v324h-83v55h83v27q0 50 7 80.5t31 49.5q44 35 130 35q72 0 111.5 -8t63.5 -30q31 -28 31 -74q0 -24 -7 -38q-11 -25 -32 -40t-55.5 -27.5t-46.5 -19.5q-38 -21 -38 -47q0 -23 22.5 -38t85.5 -38q10 -4 40 -13
t49 -17.5t36 -22.5q29 -25 29 -78z" />
    <glyph glyph-name="agrave" unicode="&#xe0;" 
d="M443 521l-11 -31l-288 100l34 77zM552 0h-135v84q-100 -96 -200 -96q-72 0 -115.5 41t-43.5 94q0 55 53 100.5t164 45.5q53 0 141 -14v31q0 64 -33 84q-34 21 -96 21q-84 0 -171 -42l-14 54q106 44 195 44q119 0 156 -69q17 -31 17 -82v-241h82v-55zM416 150v50
q-78 13 -128 13q-98 0 -138 -28q-36 -25 -36 -63q0 -30 30 -54.5t74 -24.5q109 0 198 107z" />
    <glyph glyph-name="aacute" unicode="&#xe1;" 
d="M452 590l-287 -100l-12 31l266 145zM552 0h-135v84q-100 -96 -200 -96q-72 0 -115.5 41t-43.5 94q0 55 53 100.5t164 45.5q53 0 141 -14v31q0 64 -33 84q-34 21 -96 21q-84 0 -171 -42l-14 54q106 44 195 44q119 0 156 -69q17 -31 17 -82v-241h82v-55zM416 150v50
q-78 13 -128 13q-98 0 -138 -28q-36 -25 -36 -63q0 -30 30 -54.5t74 -24.5q109 0 198 107z" />
    <glyph glyph-name="acircumflex" unicode="&#xe2;" 
d="M476 508l-42 -18l-146 110l-148 -110l-41 18l149 159h80zM552 0h-135v84q-100 -96 -200 -96q-72 0 -115.5 41t-43.5 94q0 55 53 100.5t164 45.5q53 0 141 -14v31q0 64 -33 84q-34 21 -96 21q-84 0 -171 -42l-14 54q106 44 195 44q119 0 156 -69q17 -31 17 -82v-241h82
v-55zM416 150v50q-78 13 -128 13q-98 0 -138 -28q-36 -25 -36 -63q0 -30 30 -54.5t74 -24.5q109 0 198 107z" />
    <glyph glyph-name="atilde" unicode="&#xe3;" 
d="M484 625q-15 -46 -49.5 -76.5t-79.5 -30.5q-37 0 -88 35q-50 34 -70 34q-23 0 -38.5 -22.5t-20.5 -42.5l-51 11q16 50 50.5 78t74.5 28q31 0 76 -35q47 -35 73 -35q24 0 44.5 21t28.5 45zM552 0h-135v84q-100 -96 -200 -96q-72 0 -115.5 41t-43.5 94q0 55 53 100.5
t164 45.5q53 0 141 -14v31q0 64 -33 84q-34 21 -96 21q-84 0 -171 -42l-14 54q106 44 195 44q119 0 156 -69q17 -31 17 -82v-241h82v-55zM416 150v50q-78 13 -128 13q-98 0 -138 -28q-36 -25 -36 -63q0 -30 30 -54.5t74 -24.5q109 0 198 107z" />
    <glyph glyph-name="adieresis" unicode="&#xe4;" 
d="M552 0h-135v84q-100 -96 -200 -96q-72 0 -115.5 41t-43.5 94q0 55 53 100.5t164 45.5q53 0 141 -14v31q0 64 -33 84q-34 21 -96 21q-84 0 -171 -42l-14 54q106 44 195 44q119 0 156 -69q17 -31 17 -82v-241h82v-55zM416 150v50q-78 13 -128 13q-98 0 -138 -28
q-36 -25 -36 -63q0 -30 30 -54.5t74 -24.5q109 0 198 107zM397 518h-83v124h83v-124zM251 518h-85v124h85v-124z" />
    <glyph glyph-name="aring" unicode="&#xe5;" 
d="M390 584q0 -40 -28 -68.5t-69 -28.5t-69 28.5t-28 68.5t28 68.5t69 28.5t69 -28.5t28 -68.5zM331 584q0 16 -11 27t-27 11t-27 -11t-11 -27t11 -27t27 -11t27 11t11 27zM552 0h-135v84q-100 -96 -200 -96q-72 0 -115.5 41t-43.5 94q0 55 53 100.5t164 45.5q53 0 141 -14
v31q0 64 -33 84q-34 21 -96 21q-84 0 -171 -42l-14 54q106 44 195 44q119 0 156 -69q17 -31 17 -82v-241h82v-55zM416 150v50q-78 13 -128 13q-98 0 -138 -28q-36 -25 -36 -63q0 -30 30 -54.5t74 -24.5q109 0 198 107z" />
    <glyph glyph-name="ae" unicode="&#xe6;" 
d="M564 10q-76 -22 -127 -22q-56 0 -94.5 25.5t-53.5 66.5q-61 -92 -140 -92q-50 0 -87.5 32t-37.5 93q0 58 29.5 95.5t76.5 51.5q34 10 75 10q35 0 57 -5v35q0 46 -17.5 69t-65.5 23q-46 0 -114 -28l-10 54q78 29 137 29q15 0 28.5 -1.5t23.5 -5.5t18 -7.5t14 -9t10 -9.5
t8 -10.5t5.5 -9t3.5 -8.5l2 -6q44 67 114 67t109 -59q36 -55 36 -154q0 -4 -0.5 -12t-0.5 -12h-246v-5q0 -116 75 -151q26 -12 56 -12q33 0 104 23zM509 266q-2 50 -22 88t-64 38t-72.5 -37.5t-31.5 -88.5h190zM262 131v80q-37 5 -57 5q-23 0 -50 -5q-31 -6 -53 -33t-22 -62
q0 -34 19.5 -54t49.5 -20q64 0 113 89z" />
    <glyph glyph-name="ccedilla" unicode="&#xe7;" 
d="M532 67q-93 -73 -203 -78v-26q16 -2 29.5 -18.5t13.5 -43.5q0 -35 -21.5 -59t-50.5 -24q-24 0 -56 20l14 40q24 -15 39 -15q29 0 29 30q0 25 -28 25q-4 0 -11 -2.5t-10 -2.5l5 76q-89 9 -149.5 72t-60.5 162q0 36 14 73.5t41.5 72t76 56.5t110.5 22q81 0 152 -48v48h55
v-175h-55v69q-60 50 -153 50q-83 0 -134.5 -50.5t-51.5 -120.5q0 -21 5.5 -43.5t20 -47t36 -43.5t57 -31.5t80.5 -12.5q53 0 103 26.5t81 53.5z" />
    <glyph glyph-name="egrave" unicode="&#xe8;" 
d="M458 521l-11 -31l-288 100l34 77zM536 51q-114 -63 -229 -63q-123 0 -183.5 65.5t-60.5 163.5q0 102 68.5 166t170.5 64q114 0 171 -67.5t57 -169.5h-410v-8q0 -39 19 -75.5t47 -54.5q48 -30 130 -30q93 0 203 62zM471 265q0 12 -7.5 30.5t-24.5 41.5t-53 38.5t-84 15.5
q-79 0 -126 -38t-54 -88h349z" />
    <glyph glyph-name="eacute" unicode="&#xe9;" 
d="M467 590l-287 -100l-12 31l266 145zM536 51q-114 -63 -229 -63q-123 0 -183.5 65.5t-60.5 163.5q0 102 68.5 166t170.5 64q114 0 171 -67.5t57 -169.5h-410v-8q0 -39 19 -75.5t47 -54.5q48 -30 130 -30q93 0 203 62zM471 265q0 12 -7.5 30.5t-24.5 41.5t-53 38.5
t-84 15.5q-79 0 -126 -38t-54 -88h349z" />
    <glyph glyph-name="ecircumflex" unicode="&#xea;" 
d="M491 508l-42 -18l-146 110l-148 -110l-41 18l149 159h80zM536 51q-114 -63 -229 -63q-123 0 -183.5 65.5t-60.5 163.5q0 102 68.5 166t170.5 64q114 0 171 -67.5t57 -169.5h-410v-8q0 -39 19 -75.5t47 -54.5q48 -30 130 -30q93 0 203 62zM471 265q0 12 -7.5 30.5
t-24.5 41.5t-53 38.5t-84 15.5q-79 0 -126 -38t-54 -88h349z" />
    <glyph glyph-name="edieresis" unicode="&#xeb;" 
d="M536 51q-114 -63 -229 -63q-123 0 -183.5 65.5t-60.5 163.5q0 102 68.5 166t170.5 64q114 0 171 -67.5t57 -169.5h-410v-8q0 -39 19 -75.5t47 -54.5q48 -30 130 -30q93 0 203 62zM471 265q0 12 -7.5 30.5t-24.5 41.5t-53 38.5t-84 15.5q-79 0 -126 -38t-54 -88h349z
M412 518h-83v124h83v-124zM266 518h-85v124h85v-124z" />
    <glyph glyph-name="igrave" unicode="&#xec;" 
d="M441 521l-11 -31l-288 100l34 77zM506 0h-404v55h176v324h-152v55h207v-379h173v-55z" />
    <glyph glyph-name="iacute" unicode="&#xed;" 
d="M450 590l-287 -100l-12 31l266 145zM506 0h-404v55h176v324h-152v55h207v-379h173v-55z" />
    <glyph glyph-name="icircumflex" unicode="&#xee;" 
d="M474 508l-42 -18l-146 110l-148 -110l-41 18l149 159h80zM506 0h-404v55h176v324h-152v55h207v-379h173v-55z" />
    <glyph glyph-name="idieresis" unicode="&#xef;" 
d="M395 518h-83v124h83v-124zM249 518h-85v124h85v-124zM506 0h-404v55h176v324h-152v55h207v-379h173v-55z" />
    <glyph glyph-name="eth" unicode="&#xf0;" 
d="M554 234q-2 -104 -66 -175t-188 -71q-109 0 -180.5 62.5t-71.5 166.5q0 41 14 79.5t43 73t80.5 55.5t119.5 21q96 0 148 -44q-6 15 -17 34.5t-42 56t-66 58.5l-112 -64l-28 47l80 47q-50 20 -102 25l36 49q64 -9 128 -39l116 68l27 -48l-90 -52q90 -65 130.5 -162.5
t40.5 -183.5v-4zM497 218q0 28 -8.5 55t-28.5 55t-61 45.5t-98 18.5h-7q-84 0 -137 -50t-53 -125q0 -74 55 -124t142 -50q84 0 140 48.5t56 126.5z" />
    <glyph glyph-name="ntilde" unicode="&#xf1;" 
d="M499 625q-15 -46 -49.5 -76.5t-79.5 -30.5q-37 0 -88 35q-50 34 -70 34q-23 0 -38.5 -22.5t-20.5 -42.5l-51 11q16 50 50.5 78t74.5 28q31 0 76 -35q47 -35 73 -35q24 0 44.5 21t28.5 45zM576 0h-218v55h82v255q0 82 -99 82q-45 0 -91.5 -23t-79.5 -59v-255h83v-55h-220
v55h83v323h-83v56h137v-63q84 76 187 76q63 0 100 -30q37 -31 37 -106v-256h82v-55z" />
    <glyph glyph-name="ograve" unicode="&#xf2;" 
d="M458 521l-11 -31l-288 100l34 77zM554 217q0 -100 -68 -164.5t-180 -64.5q-116 0 -185 64t-69 165q0 105 72 167.5t181 62.5q68 0 119 -23t78 -59.5t39.5 -74t12.5 -73.5zM499 216q0 24 -8.5 51t-28 56.5t-60.5 49t-98 19.5q-90 0 -143.5 -51.5t-53.5 -124.5
q0 -68 52 -120.5t146 -52.5q85 0 139.5 49t54.5 124z" />
    <glyph glyph-name="oacute" unicode="&#xf3;" 
d="M467 590l-287 -100l-12 31l266 145zM554 217q0 -100 -68 -164.5t-180 -64.5q-116 0 -185 64t-69 165q0 105 72 167.5t181 62.5q68 0 119 -23t78 -59.5t39.5 -74t12.5 -73.5zM499 216q0 24 -8.5 51t-28 56.5t-60.5 49t-98 19.5q-90 0 -143.5 -51.5t-53.5 -124.5
q0 -68 52 -120.5t146 -52.5q85 0 139.5 49t54.5 124z" />
    <glyph glyph-name="ocircumflex" unicode="&#xf4;" 
d="M491 508l-42 -18l-146 110l-148 -110l-41 18l149 159h80zM554 217q0 -100 -68 -164.5t-180 -64.5q-116 0 -185 64t-69 165q0 105 72 167.5t181 62.5q68 0 119 -23t78 -59.5t39.5 -74t12.5 -73.5zM499 216q0 24 -8.5 51t-28 56.5t-60.5 49t-98 19.5q-90 0 -143.5 -51.5
t-53.5 -124.5q0 -68 52 -120.5t146 -52.5q85 0 139.5 49t54.5 124z" />
    <glyph glyph-name="otilde" unicode="&#xf5;" 
d="M499 625q-15 -46 -49.5 -76.5t-79.5 -30.5q-37 0 -88 35q-50 34 -70 34q-23 0 -38.5 -22.5t-20.5 -42.5l-51 11q16 50 50.5 78t74.5 28q31 0 76 -35q47 -35 73 -35q24 0 44.5 21t28.5 45zM554 217q0 -100 -68 -164.5t-180 -64.5q-116 0 -185 64t-69 165q0 105 72 167.5
t181 62.5q68 0 119 -23t78 -59.5t39.5 -74t12.5 -73.5zM499 216q0 24 -8.5 51t-28 56.5t-60.5 49t-98 19.5q-90 0 -143.5 -51.5t-53.5 -124.5q0 -68 52 -120.5t146 -52.5q85 0 139.5 49t54.5 124z" />
    <glyph glyph-name="odieresis" unicode="&#xf6;" 
d="M554 217q0 -100 -68 -164.5t-180 -64.5q-116 0 -185 64t-69 165q0 105 72 167.5t181 62.5q68 0 119 -23t78 -59.5t39.5 -74t12.5 -73.5zM499 216q0 24 -8.5 51t-28 56.5t-60.5 49t-98 19.5q-90 0 -143.5 -51.5t-53.5 -124.5q0 -68 52 -120.5t146 -52.5q85 0 139.5 49
t54.5 124zM412 518h-83v124h83v-124zM266 518h-85v124h85v-124z" />
    <glyph glyph-name="divide" unicode="&#xf7;" 
d="M347 356q0 -18 -13 -31t-31 -13t-31 13t-13 31t13 31t31 13t31 -13t13 -31zM517 189h-429v56h429v-56zM347 78q0 -18 -13 -31t-31 -13t-31 13t-13 31t13 31t31 13t31 -13t13 -31z" />
    <glyph glyph-name="oslash" unicode="&#xf8;" 
d="M560 410l-54 -49q48 -55 48 -142q0 -108 -71.5 -169.5t-177.5 -61.5q-94 0 -158 46l-57 -51l-38 41l53 47q-53 58 -53 147q0 98 68.5 164t185.5 66q93 0 160 -48l56 51zM499 218q0 62 -35 104l-274 -249q46 -29 114 -29q49 0 86.5 14.5t58 37t31 41t14.5 35.5zM423 361
q-50 32 -118 32q-84 0 -140.5 -48t-56.5 -127q0 -66 39 -108z" />
    <glyph glyph-name="ugrave" unicode="&#xf9;" 
d="M449 521l-11 -31l-288 100l34 77zM569 0h-136v67q-82 -79 -167 -79q-67 0 -110 33q-47 36 -47 109v249h-83v55h137v-277q0 -67 37 -94q29 -21 77 -21q81 0 156 94v243h-83v55h137v-379h82v-55z" />
    <glyph glyph-name="uacute" unicode="&#xfa;" 
d="M458 590l-287 -100l-12 31l266 145zM569 0h-136v67q-82 -79 -167 -79q-67 0 -110 33q-47 36 -47 109v249h-83v55h137v-277q0 -67 37 -94q29 -21 77 -21q81 0 156 94v243h-83v55h137v-379h82v-55z" />
    <glyph glyph-name="ucircumflex" unicode="&#xfb;" 
d="M482 508l-42 -18l-146 110l-148 -110l-41 18l149 159h80zM569 0h-136v67q-82 -79 -167 -79q-67 0 -110 33q-47 36 -47 109v249h-83v55h137v-277q0 -67 37 -94q29 -21 77 -21q81 0 156 94v243h-83v55h137v-379h82v-55z" />
    <glyph glyph-name="udieresis" unicode="&#xfc;" 
d="M403 518h-83v124h83v-124zM257 518h-85v124h85v-124zM569 0h-136v67q-82 -79 -167 -79q-67 0 -110 33q-47 36 -47 109v249h-83v55h137v-277q0 -67 37 -94q29 -21 77 -21q81 0 156 94v243h-83v55h137v-379h82v-55z" />
    <glyph glyph-name="yacute" unicode="&#xfd;" 
d="M467 590l-287 -100l-12 31l266 145zM590 379h-63l-292 -518h85v-55h-254v55h109l97 165l-184 353h-67v55h191v-55h-64l153 -299l166 299h-56v55h179v-55z" />
    <glyph glyph-name="thorn" unicode="&#xfe;" 
d="M550 221q0 -100 -63.5 -166.5t-155.5 -66.5q-114 0 -177 81v-208h153v-55h-290v55h83v711h-83v55h137v-263q64 83 182 83q60 0 111 -30.5t80 -90.5q23 -48 23 -105zM495 220q0 25 -8 52t-25 55.5t-51.5 46.5t-80.5 18q-78 0 -125.5 -51t-47.5 -122q0 -77 50 -126.5
t121 -49.5q66 0 116.5 49t50.5 128z" />
    <glyph glyph-name="ydieresis" unicode="&#xff;" 
d="M412 518h-83v124h83v-124zM266 518h-85v124h85v-124zM590 379h-63l-292 -518h85v-55h-254v55h109l97 165l-184 353h-67v55h191v-55h-64l153 -299l166 299h-56v55h179v-55z" />
    <glyph glyph-name="dcroat" unicode="&#x111;" 
d="M583 0h-134v76q-59 -88 -175 -88q-104 0 -163.5 68.5t-59.5 161.5q0 98 63.5 163.5t163.5 65.5q109 0 171 -78v103h-191v54h191v46h-136v55h190v-101h80v-54h-80v-417h80v-55zM444 222q0 29 -8 56.5t-25.5 54t-52.5 43t-83 16.5q-73 0 -121 -51.5t-48 -122.5
q0 -70 45.5 -122.5t123.5 -52.5q75 0 122 50t47 129z" />
    <glyph glyph-name="Hbar" unicode="&#x126;" 
d="M569 0h-210v55h78v180h-274v-180h79v-55h-212v55h79v317h-89v54h89v91h-79v55h212v-55h-79v-91h274v91h-78v55h210v-55h-78v-91h88v-54h-88v-317h78v-55zM437 290v82h-274v-82h274z" />
    <glyph glyph-name="hbar" unicode="&#x127;" 
d="M582 0h-218v55h82v232q0 49 -20.5 77t-76.5 28q-78 0 -173 -87v-250h83v-55h-220v55h83v417h-105v54h105v46h-85v55h139v-101h139v-54h-139v-107q93 82 187 82q137 0 137 -138v-254h82v-55z" />
    <glyph glyph-name="dotlessi" unicode="&#x131;" 
d="M506 0h-404v55h176v324h-152v55h207v-379h173v-55z" />
    <glyph glyph-name="IJ" unicode="&#x132;" 
d="M588 517h-85v-466q0 -158 -198 -158q-60 0 -132 17l10 55q77 -18 127 -18q66 0 104 25q35 24 35 111v434h-150v55h289v-55zM257 0h-226v55h86v462h-87v55h226v-55h-85v-462h86v-55z" />
    <glyph glyph-name="ij" unicode="&#x133;" 
d="M513 531h-70v123h70v-123zM251 531h-71v123h71v-123zM533 -18q0 -62 -20 -99.5t-66 -59.5q-33 -16 -84 -16q-78 0 -143 15l8 53q68 -14 125 -14h9q17 0 30 2t31 9t31 25t20 46q4 14 4 54v382h-195v55h250v-452zM409 0h-387v55h176v324h-152v55h207v-379h156v-55z" />
    <glyph glyph-name="kgreenlandic" unicode="&#x138;" 
d="M567 0h-212v55h55q-34 43 -85.5 94.5t-85.5 79.5l-57 -42v-187h-137v55h83v324h-85v55h139v-192l176 137h-46v55h216v-55h-96l-155 -122l73 -68q52 -48 123 -134h94v-55z" />
    <glyph glyph-name="Ldot" unicode="&#x13f;" 
d="M435 256h-83v124h83v-124zM558 0h-508v55h108v462h-108v55h287v-55h-124v-462h290v203h55v-258z" />
    <glyph glyph-name="ldot" unicode="&#x140;" 
d="M629 257h-84v123h84v-123zM502 0h-404v55h177v516h-173v55h228v-571h172v-55z" />
    <glyph glyph-name="Lslash" unicode="&#x141;" 
d="M549 0h-502v55h106v157l-83 -35v55l83 35v250h-106v55h286v-55h-125v-228l174 72v-55l-174 -72v-179h286v202h55v-257z" />
    <glyph glyph-name="lslash" unicode="&#x142;" 
d="M501 0h-404v55h175v212l-130 -53v54l130 54v250h-170v55h225v-283l129 53v-55l-129 -53v-234h174v-55z" />
    <glyph glyph-name="napostrophe" unicode="&#x149;" 
d="M592 0h-173v55h58v236q0 48 -15 74.5t-61 26.5q-34 0 -69 -26t-55 -56v-255h60v-55h-175v55h60v324h-61v55h116v-56q73 69 143 69q63 0 95 -51q17 -26 17 -72v-269h60v-55zM147 572l-102 -252h-56l72 252h86z" />
    <glyph glyph-name="Eng" unicode="&#x14a;" 
d="M586 517h-76v-520q0 -80 -20.5 -124t-64.5 -65q-33 -16 -85 -16q-31 0 -55 7l8 52q15 -5 39 -5q41 0 67 12t37.5 36.5t15 47t3.5 56.5l-305 496v-439h108v-55h-243v55h80v462h-81v55h156l285 -466v411h-107v55h238v-55z" />
    <glyph glyph-name="eng" unicode="&#x14b;" 
d="M494 -3v-7q0 -145 -75 -185q-30 -16 -72 -16q-35 0 -55 6l8 53q15 -5 41 -5q39 0 57 14q19 14 29 44t11.5 51t1.5 56v302q0 82 -99 82q-45 0 -91.5 -23t-79.5 -59v-255h83v-55h-220v55h83v323h-83v56h137v-63q84 76 187 76q63 0 100 -30q37 -31 37 -106v-314z" />
    <glyph glyph-name="OE" unicode="&#x152;" 
d="M560 0h-289q-68 0 -120 24t-81.5 65t-44 89.5t-14.5 103.5q0 138 78.5 214t196.5 76h274v-157h-55v102h-151v-203h69v56h54v-168h-54v57h-69v-204h151v102h55v-157zM299 55v462h-31q-91 0 -146.5 -62.5t-55.5 -171.5t53 -168.5t145 -59.5h35z" />
    <glyph glyph-name="oe" unicode="&#x153;" 
d="M579 11q-73 -23 -130 -23q-99 0 -143 88q-7 -17 -18.5 -34t-43 -35.5t-73.5 -18.5q-15 0 -30.5 3t-39.5 15t-41.5 32.5t-30.5 61t-13 94.5q0 254 167 254q94 0 130 -80q15 31 46 55.5t78 24.5q68 0 107 -59q36 -55 36 -154q0 -4 -0.5 -12t-0.5 -12h-246v-13
q0 -74 36 -114.5t94 -40.5q38 0 105 23zM525 266q-2 50 -22 88q-21 39 -64 39q-44 0 -73 -38t-32 -89h191zM279 239q0 65 -22 109q-11 21 -32.5 33t-45.5 12q-107 0 -107 -194q0 -19 2.5 -37.5t10.5 -49.5t30.5 -50t55.5 -19q26 0 45.5 9t30.5 27.5t18 35.5t10 44t3.5 41.5
t0.5 38.5z" />
    <glyph glyph-name="Scaron" unicode="&#x160;" 
d="M523 159q0 -83 -60.5 -127t-150.5 -44q-111 0 -185 51v-40h-55v180h55v-78q71 -58 176 -58q77 0 121 29t44 78q0 37 -19 55q-37 31 -129.5 39.5t-125.5 22.5q-96 43 -96 135q0 71 53.5 126.5t152.5 55.5q86 0 144 -42v30h54v-185h-54v89q-55 53 -141 53q-67 0 -111 -33
t-44 -81q0 -63 67 -92q34 -15 114.5 -23t115.5 -24q32 -15 53 -46t21 -71zM498 785l-147 -158h-81l-149 157l41 19l149 -109l145 109z" />
    <glyph glyph-name="scaron" unicode="&#x161;" 
d="M491 647l-147 -157h-80l-150 156l41 20l149 -110l145 111zM516 131q0 -64 -53 -103.5t-137 -39.5q-37 0 -72 7.5t-55 15t-51 22.5v-45h-55v170h55v-59q73 -56 166 -56q19 0 39.5 2.5t47 10t43.5 25.5t17 44q0 19 -7 29q-9 13 -25.5 21t-28 9.5t-37 2.5t-32.5 2
q-10 1 -43 3t-47 3.5t-39 6.5t-42.5 14t-32.5 23q-26 23 -26 69q0 64 49.5 101.5t132.5 37.5q88 0 155 -40v40h54v-158h-54v59q-68 44 -152 44q-27 0 -54 -5t-52 -23.5t-25 -46.5q0 -29 26 -46q16 -10 44 -16.5t49 -8t61 -3.5t53 -3q60 -4 94 -28t34 -81z" />
    <glyph glyph-name="Tbar" unicode="&#x166;" 
d="M562 371h-55v146h-175v-201h141v-54h-141v-207h123v-55h-301v55h123v207h-145v54h145v201h-175v-146h-55v201h515v-201z" />
    <glyph glyph-name="tbar" unicode="&#x167;" 
d="M515 44q-131 -56 -212 -56q-24 0 -47.5 5t-51 17.5t-44.5 40.5t-17 68v134h-71v54h71v72h-71v55h71v129h54v-129h258v-55h-258v-72h190v-54h-190v-110q0 -63 37 -82q35 -18 80 -18q19 0 40 3.5t44.5 11t37.5 12t40.5 15.5t32.5 13z" />
    <glyph glyph-name="Ydieresis" unicode="&#x178;" 
d="M575 517h-67l-173 -295v-167h123v-55h-302v55h124v167l-177 295h-68v55h198v-55h-70l144 -240l142 240h-69v55h195v-55zM425 660h-84v125h84v-125zM278 660h-84v125h84v-125z" />
    <glyph glyph-name="Zcaron" unicode="&#x17d;" 
d="M526 0h-444v54l368 463h-282v-147h-54v202h411v-52l-369 -465h315v162h55v-217zM506 785l-147 -158h-81l-149 157l41 19l149 -109l145 109z" />
    <glyph glyph-name="zcaron" unicode="&#x17e;" 
d="M498 647l-147 -157h-80l-150 156l41 20l149 -110l145 111zM506 0h-403v52l324 327h-257v-89h-54v144h390v-51l-326 -328h271v92h55v-147z" />
    <glyph glyph-name="florin" unicode="&#x192;" 
d="M560 570l-24 -55q-6 0 -25.5 2t-29.5 2q-30 0 -50 -5.5t-31.5 -11.5t-20 -25.5t-11.5 -31.5t-10 -45l-6 -29h104l-7 -55h-107l-59 -316q-9 -47 -17 -71.5t-27.5 -49t-54 -34t-90.5 -9.5h-67l24 57q51 -3 52 -3q57 0 81 17q20 13 28 34t16 65l58 310h-104l6 55h108l5 30
q15 96 50 131q42 42 130 42q3 0 9.5 -0.5t9.5 -0.5z" />
    <glyph glyph-name="circumflex" unicode="&#x2c6;" 
d="M491 508l-42 -18l-146 110l-148 -110l-41 18l149 159h80z" />
    <glyph glyph-name="caron" unicode="&#x2c7;" 
d="M491 647l-147 -157h-80l-150 156l41 20l149 -110l145 111z" />
    <glyph glyph-name="uni02C9" unicode="&#x2c9;" 
d="M517 545h-436v52h436v-52z" />
    <glyph glyph-name="breve" unicode="&#x2d8;" 
d="M505 634q-20 -57 -72 -94t-125 -37q-60 0 -111 26.5t-76 76.5l-14 28h59q18 -38 57.5 -59.5t83.5 -21.5q50 0 89 25.5t51 55.5h58z" />
    <glyph glyph-name="dotaccent" unicode="&#x2d9;" 
d="M345 518h-84v124h84v-124z" />
    <glyph glyph-name="ring" unicode="&#x2da;" 
d="M405 584q0 -40 -28.5 -68.5t-68.5 -28.5t-68.5 28.5t-28.5 68.5t28.5 68.5t68.5 28.5t68.5 -28.5t28.5 -68.5zM346 584q0 16 -11 27t-27 11t-27 -11t-11 -27t11 -27t27 -11t27 11t11 27z" />
    <glyph glyph-name="ogonek" unicode="&#x2db;" 
d="M497 -77l-8 -59q-33 -25 -69 -25q-34 0 -54 20.5t-20 49.5q0 28 19.5 53t49.5 38h77q-3 -2 -21 -11.5t-25.5 -14.5t-16 -17t-9.5 -25v-2q0 -33 30 -33q23 0 47 26z" />
    <glyph glyph-name="tilde" unicode="&#x2dc;" 
d="M499 625q-15 -46 -49.5 -76.5t-79.5 -30.5q-37 0 -88 35q-50 34 -70 34q-23 0 -38.5 -22.5t-20.5 -42.5l-51 11q16 50 50.5 78t74.5 28q31 0 76 -35q47 -35 73 -35q24 0 44.5 21t28.5 45z" />
    <glyph glyph-name="hungarumlaut" unicode="&#x2dd;" 
d="M504 654l-143 -164l-29 23l125 177zM383 654l-145 -164l-30 23l127 177z" />
    <glyph glyph-name="Gamma" unicode="&#x393;" 
d="M544 381h-55v136h-248v-462h106v-55h-267v55h106v462h-106v55h464v-191z" />
    <glyph glyph-name="Theta" unicode="&#x398;" 
d="M561 287q0 -129 -66.5 -214t-192.5 -85q-121 0 -192.5 84t-71.5 215q0 55 16 106.5t47 95t83 70t119 26.5q61 0 108.5 -21.5t75 -54t45 -74.5t23.5 -78t6 -70zM506 285q0 32 -5.5 63t-19.5 65t-36 59t-59.5 41.5t-84.5 16.5q-55 0 -97 -24t-65 -62t-34.5 -78.5
t-11.5 -80.5q0 -104 56 -173t154 -69q101 0 152 68.5t51 173.5zM436 200h-53v60h-167v-60h-53v175h53v-60h167v60h53v-175z" />
    <glyph glyph-name="Phi" unicode="&#x3a6;" 
d="M551 287q0 -85 -57.5 -137t-165.5 -56v-39h84v-55h-223v55h84v39q-106 5 -165.5 57.5t-59.5 135.5q0 77 56.5 131.5t168.5 60.5v38h-84v55h223v-55h-84v-38q66 -3 113 -23t69 -50.5t31.5 -59.5t9.5 -59zM496 286q0 23 -6.5 43.5t-23 43t-52 37t-86.5 16.5v-279
q83 4 125.5 41.5t42.5 97.5zM273 147v279q-90 -5 -130 -46.5t-40 -93.5q0 -59 44 -97t126 -42z" />
    <glyph glyph-name="uni03A9" unicode="&#x3a9;" 
d="M572 328q0 -81 -36 -137.5t-132 -94.5v-41h107v55h55v-110h-217v135q84 23 126 70t42 132q0 89 -62.5 141t-153.5 52q-93 0 -156 -51t-63 -142q0 -160 168 -202v-135h-217v110h55v-55h107v41q-85 32 -126.5 87.5t-41.5 144.5q0 121 76.5 189t199.5 68q115 0 192 -68
t77 -189z" />
    <glyph glyph-name="alpha" unicode="&#x3b1;" 
d="M575 434q-11 -60 -40 -133.5t-60 -118.5l28 -127h71v-55h-115l-26 125q-37 -66 -91 -101.5t-112 -35.5q-77 0 -130.5 54.5t-53.5 167.5v10q2 98 55.5 162.5t147.5 64.5q153 0 207 -195q46 91 63 182h56zM418 194q-9 32 -16 53.5t-21.5 51.5t-30.5 48t-42 31.5t-57 13.5
q-77 0 -112 -47.5t-38 -121.5v-14q0 -86 38 -127t95 -41q52 0 100.5 41t83.5 112z" />
    <glyph glyph-name="delta" unicode="&#x3b4;" 
d="M530 208q0 -96 -61 -158t-163 -62q-105 0 -167.5 61.5t-62.5 158.5q0 113 83 173q61 46 144 46h3l-184 143v63h332v-55h-254l231 -179q99 -76 99 -191zM475 207q0 23 -7.5 48.5t-25 53.5t-53.5 46.5t-85 18.5q-78 0 -125.5 -49t-47.5 -118q0 -64 46 -114t128 -50
q74 0 122 46.5t48 117.5z" />
    <glyph glyph-name="epsilon" unicode="&#x3b5;" 
d="M501 39q-74 -51 -184 -51q-180 0 -180 133q0 47 27.5 75t67.5 36q-71 23 -71 93q0 61 46.5 91.5t107.5 30.5q33 0 69 -11.5t57 -28.5v40h47v-154h-47v54q-20 21 -52.5 34t-65.5 13q-52 0 -79.5 -19t-27.5 -50q0 -41 47 -60q23 -8 70 -8h34v-55h-32q-73 0 -103 -14
q-40 -18 -40 -65q0 -37 32 -59t94 -22q79 0 161 47z" />
    <glyph glyph-name="uni03BC" unicode="&#x3bc;" 
d="M573 0h-138v75q-25 -44 -73.5 -66t-93.5 -22q-64 0 -103 43v-197h-55v546h-83v55h138v-284q0 -47 29.5 -77.5t78.5 -30.5q86 0 124 56.5t38 134.5v146h-83v55h138v-378h83v-56z" />
    <glyph glyph-name="pi" unicode="&#x3c0;" 
d="M545 0h-221v55h83v323h-214v-323h83v-55h-221v55h83v323h-83v56h490v-56h-83v-323h83v-55z" />
    <glyph glyph-name="sigma" unicode="&#x3c3;" 
d="M588 392h-127q87 -62 87 -175q0 -100 -66.5 -164.5t-175.5 -64.5q-113 0 -180.5 64t-67.5 165q0 105 70.5 167.5t176.5 62.5h283v-55zM493 216q0 19 -4.5 39.5t-17 45.5t-32.5 44.5t-55 33t-80 13.5q-87 0 -139 -51.5t-52 -124.5q0 -68 50 -120.5t142 -52.5
q83 0 135.5 49t52.5 124z" />
    <glyph glyph-name="tau" unicode="&#x3c4;" 
d="M454 379h-142v-285q0 -34 10 -46.5t37 -12.5q35 0 63 17l19 -40q-46 -24 -92 -24q-54 0 -73 19.5t-19 76.5v295h-86q-20 0 -36 -3t-21 -6l-6 -3v55q20 12 61 12h285v-55z" />
    <glyph glyph-name="uni03D5" unicode="&#x3d5;" 
d="M568 228q0 -225 -239 -239v-156h-54v157q-100 8 -156.5 67t-56.5 160q0 82 40 145t120 85l17 -50q-57 -14 -88.5 -65t-31.5 -116q0 -72 42.5 -117.5t113.5 -53.5v220q0 182 138 182q69 0 112 -59.5t43 -159.5zM511 228q0 73 -27.5 118.5t-73.5 45.5q-81 0 -81 -122v-226
q182 8 182 184z" />
    <glyph glyph-name="uni2010" unicode="&#x2010;" 
d="M459 221h-320v55h320v-55z" />
    <glyph glyph-name="endash" unicode="&#x2013;" 
d="M517 221h-435v55h435v-55z" />
    <glyph glyph-name="emdash" unicode="&#x2014;" 
d="M600 221h-600v55h600v-55z" />
    <glyph glyph-name="underscoredbl" unicode="&#x2017;" 
d="M600 -147h-600v51h600v-51zM600 -250h-600v51h600v-51z" />
    <glyph glyph-name="quoteleft" unicode="&#x2018;" 
d="M395 321h-64l-107 251h95z" />
    <glyph glyph-name="quoteright" unicode="&#x2019;" 
d="M349 572l-107 -252h-64l76 252h95z" />
    <glyph glyph-name="quotesinglbase" unicode="&#x201a;" 
d="M355 127l-106 -250h-64l75 250h95z" />
    <glyph glyph-name="quotereversed" unicode="&#x201b;" 
d="M395 321h-64l-107 251h95z" />
    <glyph glyph-name="quotedblleft" unicode="&#x201c;" 
d="M496 321h-64l-107 251h96zM321 321h-65l-106 251h96z" />
    <glyph glyph-name="quotedblright" unicode="&#x201d;" 
d="M440 572l-106 -251h-65l75 251h96zM265 572l-107 -251h-64l75 251h96z" />
    <glyph glyph-name="quotedblbase" unicode="&#x201e;" 
d="M439 127l-106 -251h-65l75 251h96zM264 127l-107 -251h-64l75 251h96z" />
    <glyph glyph-name="dagger" unicode="&#x2020;" 
d="M441 374h-113v-422h-55v422h-113v55h113v143h55v-143h113v-55z" />
    <glyph glyph-name="daggerdbl" unicode="&#x2021;" 
d="M441 185h-113v-233h-55v233h-113v55h113v134h-113v55h113v143h55v-143h113v-55h-113v-134h113v-55z" />
    <glyph glyph-name="bullet" unicode="&#x2022;" 
d="M480 297q0 -75 -52.5 -128t-127.5 -53t-127.5 53t-52.5 128t52.5 128t127.5 53t127.5 -53t52.5 -128z" />
    <glyph glyph-name="ellipsis" unicode="&#x2026;" 
d="M583 46q0 -24 -21 -41t-46 -17q-30 0 -50 18t-20 41q0 25 20.5 42.5t48.5 17.5q29 0 48.5 -18.5t19.5 -42.5zM375 46q0 -24 -21 -41t-46 -17q-31 0 -51 18t-20 41q0 25 20.5 42.5t49.5 17.5t48.5 -18.5t19.5 -42.5zM166 46q0 -25 -20.5 -41.5t-45.5 -16.5q-31 0 -51 18
t-20 41q0 25 20.5 42.5t49.5 17.5t48 -18.5t19 -42.5z" />
    <glyph glyph-name="perthousand" unicode="&#x2030;" 
d="M276 498q0 -52 -35.5 -88.5t-88.5 -36.5q-55 0 -90 36.5t-35 87.5t34.5 88t88.5 37q61 0 93.5 -36t32.5 -88zM223 497q0 30 -18.5 50.5t-50.5 20.5q-33 0 -53 -20t-20 -52q0 -31 21 -49.5t52 -18.5q32 0 50.5 20.5t18.5 48.5zM587 113q0 -52 -35.5 -88.5t-88.5 -36.5
q-55 0 -90 36.5t-35 87.5t34.5 88t88.5 37q61 0 93.5 -36t32.5 -88zM534 112q0 30 -19 50.5t-51 20.5q-33 0 -52.5 -20t-19.5 -52q0 -31 20.5 -49.5t51.5 -18.5q32 0 51 21t19 48zM317 113q0 -52 -35.5 -88.5t-88.5 -36.5q-55 0 -90 36.5t-35 87.5t34.5 88t88.5 37
q61 0 93.5 -36t32.5 -88zM264 112q0 30 -19 50.5t-51 20.5q-33 0 -52.5 -20t-19.5 -52q0 -31 20.5 -49.5t51.5 -18.5q32 0 51 21t19 48zM449 380l-424 -164l-14 51l424 166z" />
    <glyph glyph-name="guilsinglleft" unicode="&#x2039;" 
d="M425 78l-17 -48l-243 192l243 192l17 -48l-185 -144z" />
    <glyph glyph-name="guilsinglright" unicode="&#x203a;" 
d="M431 222l-243 -192l-17 48l185 144l-185 144l17 48z" />
    <glyph glyph-name="exclamdbl" unicode="&#x203c;" 
d="M434 572l-16 -391h-44l-18 391h78zM243 572l-16 -391h-44l-18 391h78zM465 49q0 -25 -19 -43t-48 -18q-28 0 -48.5 18.5t-20.5 41.5t20.5 41.5t50.5 18.5q25 0 45 -17.5t20 -41.5zM273 49q0 -25 -19.5 -43t-48.5 -18q-28 0 -48 18.5t-20 41.5q0 24 20 42t50 18
q25 0 45.5 -18t20.5 -41z" />
    <glyph glyph-name="uni203E" unicode="&#x203e;" 
d="M600 703h-600v51h600v-51z" />
    <glyph glyph-name="fraction" unicode="&#x2044;" 
d="M548 562l-484 -662l-41 27l484 662z" />
    <glyph glyph-name="n.superior" unicode="&#x207f;" 
d="M485 242h-175v50h63v182q0 54 -71 54q-41 0 -76.5 -18.5t-51.5 -36.5v-181h64v-50h-177v50h64v229h-64v50h113v-49q67 55 145 55q66 0 91 -39q13 -21 13 -68v-178h62v-50z" />
    <glyph glyph-name="franc" unicode="&#x20a3;" 
d="M485 55v-55h-209v55h64v324h-47v55h102v-73q39 86 113 86q75 0 92 -67l-53 -15q-17 28 -51 28q-31 0 -58 -27.5t-43 -77.5v-233h90zM412 477h-55v40h-220v-204h70v54h55v-162h-55v53h-70v-203h64v-55h-189v55h70v462h-70v55h400v-95z" />
    <glyph glyph-name="peseta" unicode="&#x20a7;" 
d="M633 -4q-23 -8 -54 -8q-155 0 -155 130v261h-38v55h38v138h51v-138h125v-55h-125v-235q0 -101 104 -101q23 0 47 8zM362 383q0 -72 -49 -123t-138 -55h-49v-150h101v-56h-196v56h40v462h-38v55h104q50 0 80 -6q145 -32 145 -183zM307 384q0 35 -10 59.5t-25.5 38.5
t-40.5 22t-48.5 10.5t-56.5 2.5v-258q51 0 87 6q42 7 68 41.5t26 77.5z" />
    <glyph glyph-name="Euro" unicode="&#x20ac;" 
d="M27 197v53h62q0 2 -2 20.5t-2 26.5v27h-58v53h68q21 88 89.5 147.5t163.5 59.5q100 0 174 -53v53h54v-193h-54v72q-29 30 -77 48t-100 18q-70 0 -121.5 -43t-70.5 -109h275v-53h-284q-1 -7 -1 -32q0 -24 5 -42h242v-53h-234q22 -76 77.5 -115t132.5 -39q98 0 188 66
l24 -47q-100 -74 -217 -74q-100 0 -170 59t-94 150h-70z" />
    <glyph glyph-name="uni20B9" unicode="&#x20b9;" 
d="M147 229v55h59q163 0 171 106h-250v55h245q-21 74 -144 74h-101v53h401v-53h-144q33 -27 44 -74h100v-55h-97q-5 -71 -49.5 -107t-102.5 -48q67 -81 130 -180h101v-55h-129q-63 110 -172 229h-62z" />
    <glyph glyph-name="uni2113" unicode="&#x2113;" 
d="M470 600q0 -67 -31 -134t-68 -116l-101 -132v-109q0 -65 28 -65q24 0 73 74l28 -25q-7 -14 -20.5 -34t-41.5 -44.5t-53 -24.5q-69 0 -69 119v51l-62 -67l-28 28l90 100q0 71 2.5 121.5t12 111t25.5 101.5t45.5 76.5t70.5 51.5q14 6 29 6q29 0 46 -19t20.5 -36t3.5 -34z
M420 604q0 13 -8 21.5t-20 8.5q-37 0 -71 -59q-14 -24 -23 -51t-14 -63t-7 -55.5t-4 -67t-3 -58.5q4 6 24 33t40 61q1 2 11.5 19t13 22t12 22t13 25.5t11 25t10.5 28.5t7.5 27.5t6 30.5t1.5 30z" />
    <glyph glyph-name="trademark" unicode="&#x2122;" 
d="M546 381h-43v267l-60 -267h-55l-63 268v-268h-43v297h79l53 -231l52 231h80v-297zM248 634h-74v-253h-44v253h-74v44h192v-44z" />
    <glyph glyph-name="Omega" unicode="&#x2126;" 
d="M572 328q0 -81 -36 -137.5t-132 -94.5v-41h107v55h55v-110h-217v135q84 23 126 70t42 132q0 89 -62.5 141t-153.5 52q-93 0 -156 -51t-63 -142q0 -160 168 -202v-135h-217v110h55v-55h107v41q-85 32 -126.5 87.5t-41.5 144.5q0 121 76.5 189t199.5 68q115 0 192 -68
t77 -189z" />
    <glyph glyph-name="estimated" unicode="&#x212e;" 
d="M598 251h-484q-5 0 -5 -3v-147q0 -8 7 -17q77 -79 183 -79q117 0 194 89h42q-40 -48 -102.5 -76t-134.5 -28q-123 0 -210.5 78.5t-87.5 189.5q0 112 87.5 191t210.5 79q125 0 212.5 -79t87.5 -191v-7zM488 270v148q0 10 -7 17q-79 77 -182 77t-182 -79q-8 -8 -8 -19v-144
q0 -5 5 -5h371q3 0 3 5z" />
    <glyph glyph-name="oneeighth" unicode="&#x215b;" 
d="M587 12q0 -29 -13.5 -50t-35 -30t-40 -13t-35.5 -4q-15 0 -31.5 3t-38 11t-35 27.5t-13.5 48.5q0 24 11.5 43t22.5 27t22 12q-21 5 -35.5 25.5t-14.5 46.5q0 50 36 74.5t80 24.5q56 0 83 -29.5t27 -65.5q0 -31 -10.5 -45t-37.5 -31q21 -6 39.5 -25t18.5 -50zM528 159
q0 19 -16 34t-48 15q-11 0 -23 -3t-25.5 -14.5t-13.5 -31.5q0 -48 66 -48q60 0 60 48zM537 12q0 21 -17 34.5t-52 13.5q-37 0 -55 -15.5t-18 -35.5q0 -44 74 -44q27 0 47.5 12t20.5 35zM267 243h-236v50h93v224l-94 -13v50l144 22v-283h93v-50zM585 561l-482 -661l-41 28
l482 661z" />
    <glyph glyph-name="threeeighths" unicode="&#x215c;" 
d="M587 12q0 -29 -13.5 -50t-35 -30t-40 -13t-35.5 -4q-15 0 -31.5 3t-38 11t-35 27.5t-13.5 48.5q0 24 11.5 43t22.5 27t22 12q-21 5 -35.5 25.5t-14.5 46.5q0 50 36 74.5t80 24.5q56 0 83 -29.5t27 -65.5q0 -31 -10.5 -45t-37.5 -31q21 -6 39.5 -25t18.5 -50zM528 159
q0 19 -16 34t-48 15q-11 0 -23 -3t-25.5 -14.5t-13.5 -31.5q0 -48 66 -48q60 0 60 48zM537 12q0 21 -17 34.5t-52 13.5q-37 0 -55 -15.5t-18 -35.5q0 -44 74 -44q27 0 47.5 12t20.5 35zM270 336q0 -45 -35.5 -72.5t-82.5 -27.5q-56 0 -112 28l14 51q51 -29 95 -29
q36 0 54 15.5t18 34.5q0 46 -85 46h-14v49h6q36 0 55 14t19 37q0 22 -17 35t-40 13q-32 0 -81 -35l-19 47q57 37 107 37q36 0 62 -18q38 -26 38 -80q0 -42 -30 -67q24 -12 36 -28.5t12 -49.5zM569 561l-482 -661l-41 28l482 661z" />
    <glyph glyph-name="fiveeighths" unicode="&#x215d;" 
d="M587 12q0 -29 -13.5 -50t-35 -30t-40 -13t-35.5 -4q-15 0 -31.5 3t-38 11t-35 27.5t-13.5 48.5q0 24 11.5 43t22.5 27t22 12q-21 5 -35.5 25.5t-14.5 46.5q0 50 36 74.5t80 24.5q56 0 83 -29.5t27 -65.5q0 -31 -10.5 -45t-37.5 -31q21 -6 39.5 -25t18.5 -50zM528 159
q0 19 -16 34t-48 15q-11 0 -23 -3t-25.5 -14.5t-13.5 -31.5q0 -48 66 -48q60 0 60 48zM537 12q0 21 -17 34.5t-52 13.5q-37 0 -55 -15.5t-18 -35.5q0 -44 74 -44q27 0 47.5 12t20.5 35zM278 346q0 -10 -3.5 -24t-15 -35.5t-40.5 -36t-72 -14.5q-54 0 -112 23l12 45l41 -12
q22 -6 56 -6q37 0 60.5 15.5t23.5 38.5q0 55 -80 55q-29 0 -74 -20l-20 9v188h206v-50h-157v-88q8 4 28 8q15 3 30 3q56 0 86.5 -30t30.5 -69zM574 561l-482 -661l-41 28l482 661z" />
    <glyph glyph-name="seveneighths" unicode="&#x215e;" 
d="M587 12q0 -29 -13.5 -50t-35 -30t-40 -13t-35.5 -4q-15 0 -31.5 3t-38 11t-35 27.5t-13.5 48.5q0 24 11.5 43t22.5 27t22 12q-21 5 -35.5 25.5t-14.5 46.5q0 50 36 74.5t80 24.5q56 0 83 -29.5t27 -65.5q0 -31 -10.5 -45t-37.5 -31q21 -6 39.5 -25t18.5 -50zM528 159
q0 19 -16 34t-48 15q-11 0 -23 -3t-25.5 -14.5t-13.5 -31.5q0 -48 66 -48q60 0 60 48zM537 12q0 21 -17 34.5t-52 13.5q-37 0 -55 -15.5t-18 -35.5q0 -44 74 -44q27 0 47.5 12t20.5 35zM279 539l-110 -296h-53l102 279h-127v-30h-50v80h238v-33zM542 561l-482 -661l-41 28
l482 661z" />
    <glyph glyph-name="uni2190" unicode="&#x2190;" 
d="M600 187h-529l212 -106l-23 -41l-260 126v97l259 117l23 -42l-210 -96h528v-55z" />
    <glyph glyph-name="arrowup" unicode="&#x2191;" 
d="M449 264l-41 -23l-95 215v-456h-55v456l-96 -215l-41 22l115 264h97z" />
    <glyph glyph-name="uni2192" unicode="&#x2192;" 
d="M600 166l-259 -126l-23 41l210 106h-528v55h529l-212 96l23 42l260 -117v-97z" />
    <glyph glyph-name="arrowdown" unicode="&#x2193;" 
d="M449 263l-116 -263h-97l-115 264l41 22l96 -215v456h55v-456l95 215z" />
    <glyph glyph-name="arrowboth" unicode="&#x2194;" 
d="M600 169l-186 -93l-27 36l149 75h-472l152 -75l-27 -36l-189 93v90l188 94l27 -36l-151 -75h472l-149 75l27 37l186 -95v-90z" />
    <glyph glyph-name="arrowupdn" unicode="&#x2195;" 
d="M442 188l-92 -188h-91l-95 188l37 26l75 -149v398l-75 -152l-37 28l93 188h92l93 -188l-36 -27l-75 151v-398l75 149z" />
    <glyph glyph-name="arrowupdnbse" unicode="&#x21a8;" 
d="M441 188l-92 -188h-91l-95 188l37 26l75 -150v399l-75 -152l-37 28l93 188h92l93 -188l-36 -27l-75 151v-399l75 150zM441 -131h-278v55h278v-55z" />
    <glyph glyph-name="partialdiff" unicode="&#x2202;" 
d="M432 418q-3 84 -32 128.5t-78 44.5q-24 0 -37 -9.5t-30 -33.5q-18 -25 -29 -25q-9 0 -15.5 6.5t-6.5 14.5q0 33 36 67.5t84 34.5q76 0 119 -73t43 -206q0 -171 -63.5 -275t-159.5 -104q-67 0 -108.5 51.5t-41.5 137.5q0 114 76 198q64 72 151 72q50 0 92 -29zM423 296
q0 96 -94 96q-64 0 -113 -64.5t-49 -154.5q0 -59 25.5 -94.5t65.5 -35.5q67 0 112 77q53 88 53 176z" />
    <glyph glyph-name="Delta" unicode="&#x2206;" 
d="M570 0h-538l231 572h73zM490 55l-193 470l-185 -470h378z" />
    <glyph glyph-name="product" unicode="&#x220f;" 
d="M566 0h-224v45h33q29 0 34.5 12.5t6.5 62.5v312q0 51 -9.5 69t-45.5 18h-119q-36 0 -46 -18.5t-10 -69.5v-331q0 -30 7 -42.5t25 -12.5h46v-45h-228v45h26q47 0 58.5 9.5t11.5 55.5v387q0 18 -15 22.5t-55 4.5h-27v48h531v-48h-39q-56 0 -56 -28v-404q0 -27 11 -37
t40 -10h44v-45z" />
    <glyph glyph-name="summation" unicode="&#x2211;" 
d="M581 -192h-550v69l293 376l-288 357v74h543v-55h-487l309 -377l-312 -389h492v-55z" />
    <glyph glyph-name="minus" unicode="&#x2212;" 
d="M515 190h-429v54h429v-54z" />
    <glyph glyph-name="uni2215" unicode="&#x2215;" 
d="M548 562l-484 -662l-41 27l484 662z" />
    <glyph glyph-name="uni2219" unicode="&#x2219;" 
d="M375 310q0 -26 -20 -43.5t-48 -17.5q-29 0 -50.5 17.5t-21.5 41.5q0 25 20.5 42.5t48.5 17.5q35 0 53 -20t18 -38z" />
    <glyph glyph-name="radical" unicode="&#x221a;" 
d="M678 802h-76l-301 -843h-52l-88 368h-48v55h103l64 -267l266 742h132v-55z" />
    <glyph glyph-name="infinity" unicode="&#x221e;" 
d="M302 292q22 50 55.5 77t73.5 27q57 0 99.5 -52t42.5 -129q0 -78 -41.5 -129.5t-100.5 -51.5q-81 0 -129 104q-23 -50 -58 -77t-75 -27q-60 0 -101 50.5t-41 128.5q0 79 42 131t101 52q72 0 123 -90zM338 197q16 -50 43.5 -79t56.5 -29q35 0 57.5 34.5t22.5 90.5
q0 54 -24.5 90t-58.5 36q-27 0 -54 -26.5t-41 -71.5l-8 -26zM268 216l-8 22q-38 102 -95 102q-35 0 -59 -35.5t-24 -90.5q0 -58 22 -91.5t58 -33.5q32 0 60 28.5t40 74.5z" />
    <glyph glyph-name="intersection" unicode="&#x2229;" 
d="M560 0h-55v240q0 96 -51.5 152.5t-141.5 56.5q-106 0 -151.5 -63.5t-45.5 -201.5v-184h-55v237q0 118 69.5 192t180.5 74q113 0 181.5 -74.5t68.5 -198.5v-230z" />
    <glyph glyph-name="integral" unicode="&#x222b;" 
d="M566 788q-36 4 -59 4q-88 0 -124.5 -72.5t-36.5 -232.5v-289q0 -139 -54.5 -214.5t-153.5 -75.5q-22 0 -69 5v56q41 -6 69 -6q74 0 113.5 55.5t39.5 160.5v323q0 169 55 257t159 88q28 0 61 -4v-55z" />
    <glyph glyph-name="approxequal" unicode="&#x2248;" 
d="M562 270q-73 -51 -159 -51q-22 0 -51 9l-108 32q-40 12 -70 12q-34 0 -62 -15.5t-63 -51.5l-29 41q80 81 157 81q45 0 131 -26q81 -27 120 -27q56 0 103 43zM562 150q-73 -51 -159 -51q-22 0 -51 9l-108 32q-39 12 -70 12q-34 0 -62 -15.5t-63 -51.5l-29 41q78 81 157 81
q46 0 132 -26q81 -27 119 -27q56 0 103 43z" />
    <glyph glyph-name="notequal" unicode="&#x2260;" 
d="M515 110h-263l-98 -125h-68l97 125h-97v55h140l79 101h-219v55h262l99 126h68l-98 -126h98v-55h-141l-78 -101h219v-55z" />
    <glyph glyph-name="equivalence" unicode="&#x2261;" 
d="M569 325h-538v55h538v-55zM569 188h-538v55h538v-55zM569 51h-538v55h538v-55z" />
    <glyph glyph-name="lessequal" unicode="&#x2264;" 
d="M500 81l-399 123v70l399 123v-55l-344 -103l344 -103v-55zM500 0h-399v55h399v-55z" />
    <glyph glyph-name="greaterequal" unicode="&#x2265;" 
d="M529 204l-399 -123v55l343 103l-343 103v55l399 -123v-70zM529 0h-399v55h399v-55z" />
    <glyph glyph-name="dotmath" unicode="&#x22c5;" 
d="M250 360q0 15 10.5 25.5t25.5 10.5t25.5 -10.5t10.5 -25.5t-10.5 -25.5t-25.5 -10.5t-25.5 10.5t-10.5 25.5z" />
    <glyph glyph-name="house" unicode="&#x2302;" 
d="M568 0h-536v315l268 314l268 -315v-314zM504 64v228l-203 240l-205 -240v-228h408z" />
    <glyph glyph-name="uni2304" unicode="&#x2304;" 
d="M261 231l-163 341h60l142 -296l142 296h60l-163 -341h-78z" />
    <glyph glyph-name="revlogicalnot" unicode="&#x2310;" 
d="M516 281h-373v-187h-55v242h428v-55z" />
    <glyph glyph-name="uni2319" unicode="&#x2319;" 
d="M30 276h44v-232h496v-44h-540v276z" />
    <glyph glyph-name="integraltp" unicode="&#x2320;" 
d="M557 788q-45 7 -64 7q-101 0 -141 -72.5t-40 -230.5v-642h-55v682q0 161 57.5 239.5t176.5 78.5q29 0 66 -6v-56z" />
    <glyph glyph-name="integralbt" unicode="&#x2321;" 
d="M311 168q0 -160 -57.5 -239t-176.5 -79q-33 0 -66 6v56q32 -7 64 -7q112 0 157 105q24 56 24 198v642h55v-682z" />
    <glyph glyph-name="uni2500" unicode="&#x2500;" 
d="M600 219h-600v62h600v-62z" />
    <glyph glyph-name="uni2502" unicode="&#x2502;" 
d="M331 -250h-62v1000h62v-1000z" />
    <glyph glyph-name="uni250C" unicode="&#x250c;" 
d="M600 219h-269v-469h-62v531h331v-62z" />
    <glyph glyph-name="uni2510" unicode="&#x2510;" 
d="M331 -250h-62v469h-269v62h331v-531z" />
    <glyph glyph-name="uni2514" unicode="&#x2514;" 
d="M600 219h-331v531h62v-469h269v-62z" />
    <glyph glyph-name="uni2518" unicode="&#x2518;" 
d="M331 219h-331v62h269v469h62v-531z" />
    <glyph glyph-name="uni251C" unicode="&#x251c;" 
d="M600 219h-269v-469h-62v1000h62v-469h269v-62z" />
    <glyph glyph-name="uni2524" unicode="&#x2524;" 
d="M331 -250h-62v469h-269v62h269v469h62v-1000z" />
    <glyph glyph-name="uni252C" unicode="&#x252c;" 
d="M600 219h-269v-469h-62v469h-269v62h600v-62z" />
    <glyph glyph-name="uni2534" unicode="&#x2534;" 
d="M600 219h-600v62h269v469h62v-469h269v-62z" />
    <glyph glyph-name="uni253C" unicode="&#x253c;" 
d="M600 219h-269v-469h-62v469h-269v62h269v469h62v-469h269v-62z" />
    <glyph glyph-name="uni2550" unicode="&#x2550;" 
d="M600 313h-600v62h600v-62zM600 125h-600v62h600v-62z" />
    <glyph glyph-name="uni2551" unicode="&#x2551;" 
d="M425 -250h-62v1000h62v-1000zM237 -250h-62v1000h62v-1000z" />
    <glyph glyph-name="uni2552" unicode="&#x2552;" 
d="M600 125h-269v-375h-62v625h331v-62h-269v-126h269v-62z" />
    <glyph glyph-name="uni2553" unicode="&#x2553;" 
d="M600 219h-175v-469h-62v469h-126v-469h-62v531h425v-62z" />
    <glyph glyph-name="uni2554" unicode="&#x2554;" 
d="M600 313h-363v-563h-62v625h425v-62zM600 125h-175v-375h-62v437h237v-62z" />
    <glyph glyph-name="uni2555" unicode="&#x2555;" 
d="M331 -250h-62v375h-269v62h269v126h-269v62h331v-625z" />
    <glyph glyph-name="uni2556" unicode="&#x2556;" 
d="M425 -250h-62v469h-126v-469h-62v469h-175v62h425v-531z" />
    <glyph glyph-name="uni2557" unicode="&#x2557;" 
d="M425 -250h-62v563h-363v62h425v-625zM237 -250h-62v375h-175v62h237v-437z" />
    <glyph glyph-name="uni2558" unicode="&#x2558;" 
d="M600 125h-331v625h62v-375h269v-62h-269v-126h269v-62z" />
    <glyph glyph-name="uni2559" unicode="&#x2559;" 
d="M600 219h-425v531h62v-469h126v469h62v-469h175v-62z" />
    <glyph glyph-name="uni255A" unicode="&#x255a;" 
d="M600 313h-237v437h62v-375h175v-62zM600 125h-425v625h62v-563h363v-62z" />
    <glyph glyph-name="uni255B" unicode="&#x255b;" 
d="M331 125h-331v62h269v126h-269v62h269v375h62v-625z" />
    <glyph glyph-name="uni255C" unicode="&#x255c;" 
d="M425 219h-425v62h175v469h62v-469h126v469h62v-531z" />
    <glyph glyph-name="uni255D" unicode="&#x255d;" 
d="M237 313h-237v62h175v375h62v-437zM425 125h-425v62h363v563h62v-625z" />
    <glyph glyph-name="uni255E" unicode="&#x255e;" 
d="M600 125h-269v-375h-62v1000h62v-375h269v-62h-269v-126h269v-62z" />
    <glyph glyph-name="uni255F" unicode="&#x255f;" 
d="M600 219h-175v-469h-62v1000h62v-469h175v-62zM237 -250h-62v1000h62v-1000z" />
    <glyph glyph-name="uni2560" unicode="&#x2560;" 
d="M600 313h-237v437h62v-375h175v-62zM237 -250h-62v1000h62v-1000zM600 125h-175v-375h-62v437h237v-62z" />
    <glyph glyph-name="uni2561" unicode="&#x2561;" 
d="M331 -250h-62v375h-269v62h269v126h-269v62h269v375h62v-1000z" />
    <glyph glyph-name="uni2562" unicode="&#x2562;" 
d="M425 -250h-62v1000h62v-1000zM237 -250h-62v469h-175v62h175v469h62v-1000z" />
    <glyph glyph-name="uni2563" unicode="&#x2563;" 
d="M237 313h-237v62h175v375h62v-437zM425 -250h-62v1000h62v-1000zM237 -250h-62v375h-175v62h237v-437z" />
    <glyph glyph-name="uni2564" unicode="&#x2564;" 
d="M600 313h-600v62h600v-62zM600 125h-269v-375h-62v375h-269v62h600v-62z" />
    <glyph glyph-name="uni2565" unicode="&#x2565;" 
d="M600 219h-175v-469h-62v469h-126v-469h-62v469h-175v62h600v-62z" />
    <glyph glyph-name="uni2566" unicode="&#x2566;" 
d="M600 313h-600v62h600v-62zM600 125h-175v-375h-62v437h237v-62zM237 -250h-62v375h-175v62h237v-437z" />
    <glyph glyph-name="uni2567" unicode="&#x2567;" 
d="M600 313h-600v62h269v375h62v-375h269v-62zM600 125h-600v62h600v-62z" />
    <glyph glyph-name="uni2568" unicode="&#x2568;" 
d="M600 219h-600v62h175v469h62v-469h126v469h62v-469h175v-62z" />
    <glyph glyph-name="uni2569" unicode="&#x2569;" 
d="M600 313h-237v437h62v-375h175v-62zM237 313h-237v62h175v375h62v-437zM600 125h-600v62h600v-62z" />
    <glyph glyph-name="uni256A" unicode="&#x256a;" 
d="M600 125h-269v-375h-62v375h-269v62h269v126h-269v62h269v375h62v-375h269v-62h-269v-126h269v-62z" />
    <glyph glyph-name="uni256B" unicode="&#x256b;" 
d="M600 219h-175v-469h-62v469h-126v-469h-62v469h-175v62h175v469h62v-469h126v469h62v-469h175v-62z" />
    <glyph glyph-name="uni256C" unicode="&#x256c;" 
d="M600 313h-237v437h62v-375h175v-62zM237 313h-237v62h175v375h62v-437zM600 125h-175v-375h-62v437h237v-62zM237 -250h-62v375h-175v62h237v-437z" />
    <glyph glyph-name="upblock" unicode="&#x2580;" 
d="M600 250h-600v500h600v-500z" />
    <glyph glyph-name="dnblock" unicode="&#x2584;" 
d="M600 -250h-600v500h600v-500z" />
    <glyph glyph-name="block" unicode="&#x2588;" 
d="M600 -250h-600v1000h600v-1000z" />
    <glyph glyph-name="lfblock" unicode="&#x258c;" 
d="M300 -250h-300v1000h300v-1000z" />
    <glyph glyph-name="rtblock" unicode="&#x2590;" 
d="M600 -250h-300v1000h300v-1000z" />
    <glyph glyph-name="ltshade" unicode="&#x2591;" 
d="M450 584h-149v166h149v-166zM150 584h-150v166h150v-166zM450 251h-149v166h149v-166zM150 251h-150v166h150v-166zM450 -82h-149v166h149v-166zM150 -82h-150v166h150v-166z" />
    <glyph glyph-name="shade" unicode="&#x2592;" 
d="M450 585h-149v165h149v-165zM600 418h-149v166h149v-166zM150 585h-150v165h150v-165zM300 418h-150v166h150v-166zM450 251h-149v166h149v-166zM600 84h-149v166h149v-166zM150 251h-150v166h150v-166zM300 84h-150v166h150v-166zM450 -82h-149v165h149v-165zM600 -250
h-149v166h149v-166zM150 -82h-150v165h150v-165zM300 -250h-150v166h150v-166z" />
    <glyph glyph-name="dkshade" unicode="&#x2593;" 
d="M600 -83h-150v-167h-151v167h-149v-167h-150v1000h600v-167h-150v-166h150v-167h-150v-166h150v-167zM299 417v166h-149v-166h149zM299 84v166h-149v-166h149z" />
    <glyph glyph-name="uni25A0" unicode="&#x25a0;" 
d="M533 67h-466v468h466v-468z" />
    <glyph glyph-name="filledrect" unicode="&#x25ac;" 
d="M549 0h-497v198h497v-198z" />
    <glyph glyph-name="triagup" unicode="&#x25b2;" 
d="M521 57h-442l221 425z" />
    <glyph glyph-name="uni25B6" unicode="&#x25b6;" 
d="M507 249l-407 -222v444z" />
    <glyph glyph-name="triagdn" unicode="&#x25bc;" 
d="M521 482l-221 -425l-221 425h442z" />
    <glyph glyph-name="uni25C0" unicode="&#x25c0;" 
d="M500 27l-408 222l408 222v-444z" />
    <glyph glyph-name="lozenge" unicode="&#x25ca;" 
d="M609 334l-305 -344l-311 343l309 344zM565 334l-263 289l-265 -290l267 -289z" />
    <glyph glyph-name="circle" unicode="&#x25cb;" 
d="M548 301q0 -104 -72 -176q-73 -73 -176 -73t-176 73q-72 72 -72 176t72 176q73 73 176 73q105 0 176 -73q72 -72 72 -176zM510 301q0 88 -61 149q-62 62 -149 62t-149 -62q-61 -61 -61 -149t61 -149q62 -62 149 -62t149 62q61 61 61 149z" />
    <glyph glyph-name="invbullet" unicode="&#x25d8;" 
d="M600 0h-600v602h600v-602zM490 301q0 79 -56 135q-54 56 -134 56q-78 0 -134 -56t-56 -135t56 -135t134 -56q80 0 134 56q56 56 56 135z" />
    <glyph glyph-name="invcircle" unicode="&#x25d9;" 
d="M600 0h-600v602h600v-602zM517 301q0 90 -64 154t-153 64q-91 0 -153 -64q-64 -64 -64 -154t64 -154q62 -64 153 -64t153 64q64 64 64 154zM455 300q0 -65 -45 -110t-110 -45t-110 44.5t-45 110.5q0 67 44.5 112t110.5 45t110.5 -45t44.5 -112z" />
    <glyph glyph-name="smileface" unicode="&#x263a;" 
d="M596 296q0 -95 -53 -172q-41 -59 -104 -91.5t-136 -32.5q-74 0 -138.5 33.5t-106.5 94.5q-52 75 -52 166q0 124 89 211q87 85 209 85q121 0 206 -87q86 -86 86 -207zM563 296q0 108 -77 185q-74 76 -182 76q-67 0 -124.5 -30.5t-95.5 -85.5q-45 -66 -45 -145
q0 -68 31.5 -126t88.5 -94q68 -43 145 -43q64 0 120 28.5t92 80.5q47 68 47 154zM379 429q0 -34 -24 -34q-21 0 -21 32t22 32q23 0 23 -30zM272 429q0 -34 -24 -34q-21 0 -21 32t22 32q23 0 23 -30zM522 291q-6 -7 -14 -7q-3 0 -21 5q-60 -144 -184 -144q-130 0 -178 111
q-14 33 -20 33q-2 0 -8.5 -2.5t-10.5 -2.5q-13 0 -13 13q0 15 25 42t43 27q9 0 9 -9q0 -83 38.5 -127t109.5 -44q62 0 104 40q21 20 34 51t13 52q0 5 -2 14.5t-2 13.5q0 11 11 11q13 0 36 -23.5t30 -53.5z" />
    <glyph glyph-name="invsmileface" unicode="&#x263b;" 
d="M594 296q0 -97 -53 -172q-41 -59 -104 -91.5t-136 -32.5q-74 0 -138.5 33.5t-106.5 94.5q-52 75 -52 166q0 124 89 211q87 85 209 85q121 0 206 -87q86 -86 86 -207zM403 440q0 23 -10.5 36.5t-27.5 13.5q-36 0 -36 -44q0 -52 40 -52q34 0 34 46zM268 446q0 44 -36 44
q-38 0 -38 -50q0 -46 34 -46q40 0 40 52zM551 296q0 28 -32 65.5t-51 37.5q-22 0 -22 -22v-43q0 -69 -41 -116.5t-104 -47.5q-67 0 -109.5 48t-42.5 122v35q0 24 -18 24q-21 0 -53 -37.5t-32 -65.5q0 -21 19 -21q7 0 14.5 9t11.5 9q5 0 8.5 -5t7.5 -20t6 -20
q23 -65 72 -100.5t116 -35.5q123 0 179 124q5 11 9 27t7.5 23t9.5 7q4 0 11.5 -9t14.5 -9q19 0 19 21z" />
    <glyph glyph-name="sun" unicode="&#x263c;" 
d="M652 339h-110q-11 -79 -59 -138l81 -83l-28 -26l-80 82q-64 -52 -138 -60v-110h-38v110q-78 8 -138 62l-84 -82l-27 27l83 82q-53 56 -58 136h-112v38h112q7 81 59 138l-82 81l24 26l83 -81q59 51 140 61v111h38v-111q78 -8 141 -60l80 81l25 -26l-81 -81q52 -62 59 -139
h110v-38zM504 358q0 86 -60 146t-145 60t-145 -60t-60 -146t60 -146t145 -60t145 60t60 146z" />
    <glyph glyph-name="female" unicode="&#x2640;" 
d="M277 314q-94 19 -145 76.5t-51 141.5q0 54 25.5 102t69.5 78q58 38 127 38q89 0 152.5 -63t63.5 -154q0 -88 -53.5 -148t-142.5 -70v-146h142v-46h-142v-123h-46v123h-142v46h142v145zM478 534q0 75 -52 127t-126 52t-126 -52t-52 -127t52 -127t126 -52t126 52t52 127z
" />
    <glyph glyph-name="male" unicode="&#x2642;" 
d="M567 535l-15 -13q-53 44 -98 131l-97 -241q113 -71 113 -194q0 -64 -34 -117q-30 -47 -78.5 -74t-103.5 -27q-93 0 -155.5 62.5t-62.5 155.5q0 54 24.5 101.5t67.5 78.5q53 38 120 38q30 0 65 -8l99 239q-103 -23 -153 -23h-6l-4 18q112 30 206 88l20 -7q14 -88 92 -208z
M430 218q0 73 -52 125t-125 52t-125 -52q-51 -51 -51 -125t51 -125q52 -52 125 -52t125 52t52 125z" />
    <glyph glyph-name="spade" unicode="&#x2660;" 
d="M303 571q27 -43 60 -86.5t72.5 -92.5t59.5 -76q70 -92 70 -152q0 -47 -28 -77.5t-69 -30.5q-42 0 -62.5 20.5t-41.5 67.5q-12 27 -27 27q-19 0 -19 -52q0 -57 36 -119h-102q36 62 36 123q0 22 -5.5 35t-13.5 13q-15 0 -27 -27q-21 -47 -41.5 -67.5t-62.5 -20.5
q-44 0 -73 30.5t-29 78.5q0 58 64 142q3 4 35.5 43.5t76.5 96.5t91 124z" />
    <glyph glyph-name="uni2662" unicode="&#x2662;" 
d="M609 334l-305 -344l-311 343l309 344zM565 334l-263 289l-265 -290l267 -289z" />
    <glyph glyph-name="club" unicode="&#x2663;" 
d="M242 0q36 50 36 111q0 62 -19 62q-9 0 -30 -24q-33 -39 -57 -56.5t-59 -17.5q-51 0 -81.5 35.5t-30.5 96.5q0 56 30.5 90.5t80.5 34.5q29 0 52.5 -12.5t40.5 -25t29 -12.5q17 0 17 14q0 9 -35 41q-26 25 -38.5 44.5t-12.5 48.5q0 52 36 84t95 32q66 0 104 -31t38 -85
q0 -44 -36 -80q-8 -8 -18.5 -17.5t-16 -14.5t-9.5 -11.5t-4 -11.5t4.5 -9t10.5 -4q7 0 48 25.5t74 25.5q46 0 77.5 -36.5t31.5 -93.5q0 -58 -30 -93t-78 -35q-49 0 -87 40q-11 12 -24 28.5t-20 23t-14 6.5q-20 0 -20 -59q0 -64 37 -114h-122z" />
    <glyph glyph-name="heart" unicode="&#x2665;" 
d="M302 0q-69 97 -143.5 192.5t-76.5 97.5q-46 64 -46 128q0 63 34.5 101.5t88.5 38.5q69 0 109 -79q4 -8 8.5 -19.5t7 -17t7 -10t9.5 -4.5q6 0 11 4.5t7.5 10t8.5 18.5q22 50 48.5 73.5t66.5 23.5q52 0 87 -39.5t35 -100.5q0 -66 -51 -137q-2 -3 -77.5 -99.5t-133.5 -181.5
z" />
    <glyph glyph-name="diamond" unicode="&#x2666;" 
d="M527 269l-226 -292l-226 287l226 292z" />
    <glyph glyph-name="musicalnote" unicode="&#x266a;" 
d="M325 739q2 -82 10 -106q6 -16 20.5 -35t40.5 -48.5t43 -50.5q72 -93 72 -188q0 -57 -21 -137l-37 12q21 82 21 124q0 130 -149 219v-371q0 -62 -47 -103t-112 -41q-41 0 -65 21t-24 56q0 47 48 91q50 46 116 46q19 0 46 -5v516h38z" />
    <glyph glyph-name="uni266C" unicode="&#x266c;" 
d="M516 -42q0 -64 -46 -105t-114 -41q-40 0 -63 19.5t-23 54.5q0 54 48.5 96t113.5 42q11 0 16 -1l30 -3v254q-51 89 -146 125v-237q0 -63 -48.5 -106t-114.5 -43q-38 0 -62 21.5t-24 55.5q0 52 46 95t112 43q2 0 6.5 -0.5t7.5 -0.5l39 -3v515h38v-11q0 -51 15 -84
q9 -21 25 -39.5t46 -46.5t41 -39q36 -37 46.5 -66.5t10.5 -78.5v-416zM478 349v43q0 51 -35.5 89t-110.5 71v-15q0 -43 10 -60q5 -8 22.5 -23.5t50.5 -44.5t63 -60z" />
    <glyph glyph-name="uni0044_uni004D" unicode="&#xe001;" 
d="M586 0h-132v55h34v359h-6l-44 -157h-30l-44 157h-6v-359h34v-55h-132v55h44v462h-44v55h104l59 -221l59 221h104v-55h-44v-462h44v-55zM7 517v55h114q57 0 90 -34q57 -59 57 -239q0 -203 -63 -266q-33 -33 -88 -33h-110v55h54v462h-54zM115 517v-462h7q24 0 42 18
q49 49 49 218q0 165 -43 207q-19 19 -49 19h-6z" />
    <glyph glyph-name="zero.slash" unicode="&#xf638;" 
d="M307 584q94 0 146 -87q43 -72 43 -199q0 -310 -192 -310q-60 0 -101.5 32t-59.5 84.5t-24.5 95.5t-6.5 89q0 127 42 204q50 91 153 91zM430 406l-233 -295q35 -68 110 -68q135 0 135 251q-2 72 -12 112zM179 170l231 292q-15 32 -43.5 49.5t-62.5 17.5q-39 0 -67.5 -21
t-43 -57t-20.5 -76t-6 -87q0 -61 12 -118z" />
    <glyph glyph-name="fi" unicode="&#xfb01;" 
d="M485 530h-70v124h70v-124zM592 0h-265v55h104v324h-81v55h135v-379h107v-55zM319 616l-9 -54q-36 9 -65 9q-50 0 -67.5 -21.5t-17.5 -65.5v-50h106v-55h-106v-324h106v-55h-266v55h106v324h-106v55h106v56q0 44 7 64q12 34 44.5 53t70.5 19q39 0 91 -10z" />
    <glyph glyph-name="fl" unicode="&#xfb02;" 
d="M594 0h-265v55h106v516h-91v55h145v-571h105v-55zM323 615l-9 -54q-42 10 -66 10q-30 0 -48 -6.5t-25.5 -21.5t-9.5 -28t-2 -37v-44h106v-55h-106v-324h106v-55h-265v55h106v324h-107v55h107v74q0 55 32.5 86.5t97.5 31.5q26 0 83 -11z" />
    <glyph glyph-name="f_i" 
d="M485 530h-70v124h70v-124zM592 0h-265v55h104v324h-81v55h135v-379h107v-55zM319 616l-9 -54q-36 9 -65 9q-50 0 -67.5 -21.5t-17.5 -65.5v-50h106v-55h-106v-324h106v-55h-266v55h106v324h-106v55h106v56q0 44 7 64q12 34 44.5 53t70.5 19q39 0 91 -10z" />
    <glyph glyph-name="f_l" 
d="M594 0h-265v55h106v516h-91v55h145v-571h105v-55zM323 615l-9 -54q-42 10 -66 10q-30 0 -48 -6.5t-25.5 -21.5t-9.5 -28t-2 -37v-44h106v-55h-106v-324h106v-55h-265v55h106v324h-107v55h107v74q0 55 32.5 86.5t97.5 31.5q26 0 83 -11z" />
    <glyph glyph-name="a.superior" 
d="M433 350h-90v38q-51 -44 -102 -44q-38 0 -61.5 21.5t-23.5 48.5q0 26 26.5 49t91.5 23q26 0 68 -6v10q0 24 -12.5 38t-52.5 14q-38 0 -90 -22l-10 42q66 22 111 22q37 0 60 -11q23 -10 30 -27.5t7 -48.5v-105h48v-42zM342 438q-38 6 -75 6q-69 0 -69 -30q0 -27 46 -27
q60 0 98 51z" />
    <glyph glyph-name="o.superior" 
d="M432 464q0 -58 -42.5 -89t-88.5 -31q-24 0 -51.5 10t-52.5 39.5t-25 71.5q0 57 41 88t90 31q57 0 93 -35t36 -85zM389 465q0 25 -20 50.5t-65 25.5q-41 0 -65 -21.5t-24 -54.5q0 -36 26.5 -57t61.5 -21q34 0 60 21t26 57z" />
    <glyph glyph-name="one.superior" 
d="M419 243h-236v50h93v224l-94 -13v50l144 22v-283h93v-50z" />
    <glyph glyph-name="two.superior" 
d="M416 243h-232v47l129 100q54 41 54 80q0 24 -17.5 42t-45.5 18q-23 0 -41 -13.5t-18 -35.5q0 -6 1 -9h-49v58q43 49 107 49q53 0 82.5 -30t29.5 -72q0 -45 -31 -79.5t-124 -104.5h155v-50z" />
    <glyph glyph-name="three.superior" 
d="M415 336q0 -45 -35.5 -72.5t-82.5 -27.5q-56 0 -112 28l14 51q51 -29 95 -29q36 0 54 15.5t18 34.5q0 46 -85 46h-14v49h6q36 0 55 14t19 37q0 22 -17 35t-40 13q-32 0 -81 -35l-19 47q57 37 107 37q36 0 62 -18q38 -26 38 -80q0 -42 -30 -67q24 -12 36 -28.5t12 -49.5z
" />
  </font>
</defs>
</svg>
